<svg width="578" height="141" viewBox="0 0 578 141" fill="none" xmlns="http://www.w3.org/2000/svg">
<g clip-path="url(#clip0)">
<path d="M314.064 36V25.176C314.064 24.488 314.2 23.96 314.472 23.592C314.744 23.224 315.096 22.968 315.528 22.824C315.96 22.68 316.424 22.608 316.92 22.608C317.096 22.608 317.32 22.632 317.592 22.68C317.88 22.728 318.128 22.8 318.336 22.896L318.072 24.504C317.912 24.456 317.752 24.424 317.592 24.408C317.432 24.376 317.304 24.36 317.208 24.36C316.808 24.36 316.528 24.456 316.368 24.648C316.224 24.84 316.152 25.112 316.152 25.464V29.184C316.152 29.68 316.144 30.2 316.128 30.744C316.128 31.272 316.104 31.912 316.056 32.664H316.152C316.472 31.96 316.768 31.376 317.04 30.912C317.312 30.432 317.568 29.984 317.808 29.568L319.08 27.408H320.424L321.696 29.568C322.064 30.208 322.376 30.76 322.632 31.224C322.888 31.672 323.128 32.152 323.352 32.664H323.448C323.4 31.912 323.368 31.272 323.352 30.744C323.352 30.2 323.352 29.68 323.352 29.184V22.848H325.44V36H323.544L319.824 29.712H319.728L315.96 36H314.064ZM322.33 42.36C321.306 42.36 320.53 42.152 320.002 41.736C319.458 41.336 319.186 40.76 319.186 40.008V39.6C319.186 39.328 319.122 39.16 318.994 39.096C318.85 39.048 318.658 39.056 318.418 39.12L318.274 37.68C318.498 37.616 318.722 37.576 318.946 37.56C319.154 37.544 319.314 37.536 319.426 37.536C320.002 37.536 320.418 37.664 320.674 37.92C320.914 38.176 321.034 38.536 321.034 39V39.816C321.034 40.12 321.13 40.376 321.322 40.584C321.514 40.792 321.842 40.896 322.306 40.896C322.786 40.896 323.122 40.792 323.314 40.584C323.49 40.376 323.578 40.12 323.578 39.816V37.608H325.45V39.936C325.45 41.552 324.41 42.36 322.33 42.36ZM318.754 20.76V19.704C319.074 19.64 319.402 19.552 319.738 19.44C320.074 19.312 320.354 19.152 320.578 18.96C320.802 18.752 320.914 18.504 320.914 18.216C320.914 18.024 320.858 17.864 320.746 17.736C320.618 17.592 320.426 17.52 320.17 17.52C320.01 17.52 319.85 17.552 319.69 17.616C319.514 17.68 319.362 17.736 319.234 17.784L318.754 16.464C319.074 16.208 319.434 16.04 319.834 15.96C320.218 15.88 320.53 15.84 320.77 15.84C321.41 15.84 321.914 16.016 322.282 16.368C322.634 16.72 322.81 17.168 322.81 17.712C322.81 17.984 322.762 18.24 322.666 18.48C322.57 18.704 322.45 18.904 322.306 19.08H326.194V20.76H318.754ZM334.787 36.24C332.899 36.24 331.547 35.808 330.73 34.944C329.914 34.08 329.507 32.848 329.507 31.248V22.848H331.643V31.272C331.643 33.4 332.691 34.464 334.787 34.464C335.875 34.464 336.675 34.2 337.187 33.672C337.715 33.144 337.979 32.344 337.979 31.272V18.12H340.115V31.248C340.115 32.848 339.699 34.08 338.867 34.944C338.051 35.808 336.691 36.24 334.787 36.24ZM333.861 20.76V15.696H335.973V20.76H333.861ZM346.678 36.24C346.054 36.24 345.446 36.176 344.854 36.048C344.278 35.92 343.662 35.68 343.006 35.328L343.678 33.696C344.03 33.904 344.43 34.088 344.878 34.248C345.326 34.392 345.846 34.464 346.438 34.464C347.622 34.464 348.542 34.032 349.198 33.168C349.87 32.288 350.206 31.024 350.206 29.376C350.206 27.76 349.862 26.528 349.174 25.68C348.502 24.816 347.462 24.384 346.054 24.384C345.542 24.384 345.022 24.44 344.494 24.552C343.966 24.664 343.502 24.832 343.102 25.056V23.256C343.566 23.016 344.07 22.848 344.614 22.752C345.174 22.656 345.734 22.608 346.294 22.608C347.734 22.608 348.902 22.896 349.798 23.472C350.694 24.032 351.35 24.816 351.766 25.824C352.182 26.832 352.39 28.016 352.39 29.376C352.39 31.488 351.91 33.16 350.95 34.392C350.006 35.624 348.582 36.24 346.678 36.24ZM360.914 36.216C358.978 36.216 357.61 35.848 356.81 35.112C356.01 34.376 355.61 33.384 355.61 32.136C355.61 31.4 355.714 30.816 355.922 30.384C356.146 29.936 356.418 29.608 356.738 29.4C357.074 29.192 357.418 29.056 357.77 28.992V28.896C357.45 28.8 357.114 28.64 356.762 28.416C356.41 28.192 356.114 27.88 355.874 27.48C355.65 27.08 355.538 26.576 355.538 25.968C355.538 25.408 355.666 24.88 355.922 24.384C356.178 23.888 356.594 23.48 357.17 23.16C357.746 22.84 358.506 22.68 359.45 22.68C359.834 22.68 360.234 22.712 360.65 22.776C361.066 22.824 361.386 22.912 361.61 23.04L361.226 24.696C361.05 24.632 360.818 24.576 360.53 24.528C360.258 24.464 359.97 24.432 359.666 24.432C358.994 24.432 358.498 24.592 358.178 24.912C357.858 25.216 357.698 25.624 357.698 26.136C357.698 26.696 357.834 27.12 358.106 27.408C358.394 27.696 358.754 27.896 359.186 28.008C359.634 28.104 360.098 28.152 360.578 28.152H361.034V29.712H360.578C359.618 29.712 358.906 29.888 358.442 30.24C357.994 30.576 357.77 31.144 357.77 31.944C357.77 32.408 357.858 32.832 358.034 33.216C358.226 33.6 358.546 33.904 358.994 34.128C359.458 34.352 360.098 34.464 360.914 34.464C362.13 34.464 362.962 34.216 363.41 33.72C363.858 33.208 364.082 32.512 364.082 31.632V22.848H366.218V31.488C366.218 33.168 365.786 34.376 364.922 35.112C364.074 35.848 362.738 36.216 360.914 36.216ZM375.164 36.216C373.228 36.216 371.86 35.848 371.06 35.112C370.26 34.376 369.86 33.384 369.86 32.136C369.86 31.4 369.964 30.816 370.172 30.384C370.396 29.936 370.668 29.608 370.988 29.4C371.324 29.192 371.668 29.056 372.02 28.992V28.896C371.7 28.8 371.364 28.64 371.012 28.416C370.66 28.192 370.364 27.88 370.124 27.48C369.9 27.08 369.788 26.576 369.788 25.968C369.788 25.408 369.916 24.88 370.172 24.384C370.428 23.888 370.844 23.48 371.42 23.16C371.996 22.84 372.756 22.68 373.7 22.68C374.084 22.68 374.484 22.712 374.9 22.776C375.316 22.824 375.636 22.912 375.86 23.04L375.476 24.696C375.3 24.632 375.068 24.576 374.78 24.528C374.508 24.464 374.22 24.432 373.916 24.432C373.244 24.432 372.748 24.592 372.428 24.912C372.108 25.216 371.948 25.624 371.948 26.136C371.948 26.696 372.084 27.12 372.356 27.408C372.644 27.696 373.004 27.896 373.436 28.008C373.884 28.104 374.348 28.152 374.828 28.152H375.284V29.712H374.828C373.868 29.712 373.156 29.888 372.692 30.24C372.244 30.576 372.02 31.144 372.02 31.944C372.02 32.408 372.108 32.832 372.284 33.216C372.476 33.6 372.796 33.904 373.244 34.128C373.708 34.352 374.348 34.464 375.164 34.464C376.38 34.464 377.212 34.216 377.66 33.72C378.108 33.208 378.332 32.512 378.332 31.632V22.848H380.468V31.488C380.468 33.168 380.036 34.376 379.172 35.112C378.324 35.848 376.988 36.216 375.164 36.216ZM370.258 20.76V19.824L372.01 19.056H375.202V17.112H376.978V19.056H378.706V17.112H380.458V20.76H370.258ZM388.886 36.24C387.478 36.24 386.366 35.872 385.55 35.136C384.75 34.4 384.35 33.232 384.35 31.632V22.848H386.486V31.512C386.486 33.464 387.438 34.44 389.342 34.44C390.462 34.44 391.326 34.08 391.934 33.36C392.558 32.64 392.87 31.672 392.87 30.456V22.848H395.006V36H393.23L393.134 34.056H393.014C392.726 34.696 392.222 35.224 391.502 35.64C390.798 36.04 389.926 36.24 388.886 36.24ZM404.133 36.216C402.197 36.216 400.829 35.848 400.029 35.112C399.229 34.376 398.829 33.384 398.829 32.136C398.829 31.4 398.933 30.816 399.141 30.384C399.365 29.936 399.637 29.608 399.957 29.4C400.293 29.192 400.637 29.056 400.989 28.992V28.896C400.669 28.8 400.333 28.64 399.981 28.416C399.629 28.192 399.333 27.88 399.093 27.48C398.869 27.08 398.757 26.576 398.757 25.968C398.757 25.408 398.885 24.88 399.141 24.384C399.397 23.888 399.813 23.48 400.389 23.16C400.965 22.84 401.725 22.68 402.669 22.68C403.053 22.68 403.453 22.712 403.869 22.776C404.285 22.824 404.605 22.912 404.829 23.04L404.445 24.696C404.269 24.632 404.037 24.576 403.749 24.528C403.477 24.464 403.189 24.432 402.885 24.432C402.213 24.432 401.717 24.592 401.397 24.912C401.077 25.216 400.917 25.624 400.917 26.136C400.917 26.696 401.053 27.12 401.325 27.408C401.613 27.696 401.973 27.896 402.405 28.008C402.853 28.104 403.317 28.152 403.797 28.152H404.253V29.712H403.797C402.837 29.712 402.125 29.888 401.661 30.24C401.213 30.576 400.989 31.144 400.989 31.944C400.989 32.408 401.077 32.832 401.253 33.216C401.445 33.6 401.765 33.904 402.213 34.128C402.677 34.352 403.317 34.464 404.133 34.464C405.349 34.464 406.181 34.216 406.629 33.72C407.077 33.208 407.301 32.512 407.301 31.632V22.848H409.437V31.488C409.437 33.168 409.005 34.376 408.141 35.112C407.293 35.848 405.957 36.216 404.133 36.216ZM406.378 20.76C405.37 20.76 404.658 20.56 404.242 20.16C403.826 19.744 403.618 19.28 403.618 18.768C403.618 18.528 403.658 18.272 403.738 18C403.802 17.712 403.89 17.48 404.002 17.304L405.802 17.616C405.706 17.808 405.658 18.056 405.658 18.36C405.658 18.568 405.722 18.752 405.85 18.912C405.978 19.056 406.194 19.128 406.498 19.128H412.571V20.76H406.378ZM417.855 36.24C416.447 36.24 415.335 35.872 414.519 35.136C413.719 34.4 413.319 33.232 413.319 31.632V22.848H415.455V31.512C415.455 33.464 416.407 34.44 418.311 34.44C419.431 34.44 420.295 34.08 420.903 33.36C421.527 32.64 421.839 31.672 421.839 30.456V22.848H423.975V36H422.199L422.103 34.056H421.983C421.695 34.696 421.191 35.224 420.471 35.64C419.767 36.04 418.895 36.24 417.855 36.24ZM432.694 36.24C431.35 36.24 430.31 35.936 429.574 35.328C428.838 34.704 428.326 33.864 428.038 32.808C427.75 31.736 427.606 30.52 427.606 29.16C427.606 26.824 427.934 25.152 428.59 24.144C429.262 23.12 430.222 22.608 431.47 22.608C432.03 22.608 432.502 22.704 432.886 22.896C433.286 23.088 433.566 23.408 433.726 23.856H433.822C433.982 23.392 434.27 23.072 434.686 22.896C435.102 22.704 435.59 22.608 436.15 22.608C437.19 22.608 437.99 22.888 438.55 23.448C439.126 23.992 439.414 24.832 439.414 25.968V36H437.278V25.992C437.278 25.368 437.142 24.944 436.87 24.72C436.598 24.496 436.254 24.384 435.838 24.384C435.374 24.384 435.03 24.496 434.806 24.72C434.598 24.944 434.47 25.312 434.422 25.824H433.078C433.014 25.264 432.846 24.888 432.574 24.696C432.302 24.488 431.998 24.384 431.662 24.384C431.022 24.384 430.542 24.76 430.222 25.512C429.902 26.248 429.742 27.472 429.742 29.184C429.742 30.288 429.822 31.232 429.982 32.016C430.158 32.8 430.478 33.408 430.942 33.84C431.406 34.256 432.078 34.464 432.958 34.464C433.278 34.464 433.542 34.448 433.75 34.416C433.958 34.384 434.158 34.344 434.35 34.296L434.566 35.928C434.326 36.04 434.038 36.12 433.702 36.168C433.366 36.216 433.03 36.24 432.694 36.24ZM428.922 20.76V19.824L430.674 19.056H439.122V20.76H428.922ZM447.784 36.24C446.504 36.24 445.496 35.944 444.76 35.352C444.04 34.744 443.528 33.928 443.224 32.904C442.936 31.88 442.792 30.752 442.792 29.52C442.792 27.712 443.04 26.312 443.536 25.32C444.032 24.312 444.72 23.608 445.6 23.208C446.496 22.808 447.528 22.608 448.696 22.608C450.616 22.608 452.008 23.024 452.872 23.856C453.752 24.688 454.192 25.816 454.192 27.24V36H452.08V27.432C452.08 26.44 451.832 25.688 451.336 25.176C450.84 24.648 449.984 24.384 448.768 24.384C448.032 24.384 447.368 24.52 446.776 24.792C446.2 25.064 445.744 25.568 445.408 26.304C445.088 27.04 444.928 28.12 444.928 29.544C444.928 30.472 445.016 31.312 445.192 32.064C445.384 32.8 445.712 33.384 446.176 33.816C446.64 34.248 447.288 34.464 448.12 34.464C448.36 34.464 448.584 34.448 448.792 34.416C449 34.384 449.2 34.336 449.392 34.272L449.608 35.928C449.352 36.04 449.056 36.12 448.72 36.168C448.4 36.216 448.088 36.24 447.784 36.24ZM461.061 36.24C460.629 36.24 460.213 36.168 459.813 36.024C459.413 35.88 459.085 35.624 458.829 35.256C458.573 34.888 458.445 34.376 458.445 33.72V22.848H460.581V33.456C460.581 33.824 460.661 34.088 460.821 34.248C460.981 34.408 461.237 34.488 461.589 34.488C461.733 34.488 461.885 34.472 462.045 34.44C462.205 34.408 462.357 34.368 462.501 34.32L462.789 35.88C462.485 36.024 462.189 36.12 461.901 36.168C461.613 36.216 461.333 36.24 461.061 36.24ZM469.538 36.24C468.018 36.24 466.842 35.88 466.01 35.16C465.194 34.424 464.786 33.328 464.786 31.872V30.408C464.786 29.608 464.898 28.976 465.122 28.512C465.346 28.048 465.586 27.648 465.842 27.312C466.114 26.944 466.346 26.624 466.538 26.352C466.746 26.08 466.85 25.752 466.85 25.368C466.85 25.032 466.762 24.792 466.586 24.648C466.426 24.504 466.218 24.432 465.962 24.432C465.77 24.432 465.562 24.464 465.338 24.528C465.13 24.592 464.922 24.672 464.714 24.768L464.234 23.232C464.522 23.04 464.874 22.904 465.29 22.824C465.722 22.744 466.098 22.704 466.418 22.704C467.314 22.704 467.946 22.936 468.314 23.4C468.682 23.848 468.866 24.424 468.866 25.128C468.866 25.72 468.762 26.208 468.554 26.592C468.362 26.976 468.13 27.352 467.858 27.72C467.586 28.12 467.362 28.504 467.186 28.872C467.01 29.24 466.922 29.72 466.922 30.312V31.728C466.922 32.464 467.042 33.032 467.282 33.432C467.522 33.832 467.842 34.112 468.242 34.272C468.642 34.416 469.074 34.488 469.538 34.488C471.17 34.488 471.986 33.72 471.986 32.184V28.824C471.986 28.232 471.85 27.784 471.578 27.48C471.306 27.16 470.866 27 470.258 27H470.162V25.632H470.282C470.938 25.632 471.402 25.48 471.674 25.176C471.946 24.872 472.106 24.504 472.154 24.072C472.218 23.624 472.25 23.216 472.25 22.848H474.386C474.386 23.696 474.282 24.416 474.074 25.008C473.866 25.6 473.394 26.032 472.658 26.304V26.4C473.106 26.512 473.426 26.704 473.618 26.976C473.826 27.232 473.962 27.528 474.026 27.864C474.09 28.184 474.122 28.496 474.122 28.8V32.304C474.122 33.536 473.738 34.504 472.97 35.208C472.202 35.896 471.058 36.24 469.538 36.24ZM464.195 20.76V19.824L465.947 19.056H469.139V17.112H470.915V19.056H472.643V17.112H474.395V20.76H464.195ZM468.769 15.696V14.856C469.089 14.776 469.433 14.648 469.801 14.472C470.153 14.296 470.329 14.032 470.329 13.68C470.329 13.312 470.145 13.128 469.777 13.128C469.521 13.128 469.257 13.208 468.985 13.368L468.553 12.264C468.841 12.072 469.169 11.944 469.537 11.88C469.889 11.816 470.169 11.784 470.377 11.784C470.793 11.784 471.169 11.896 471.505 12.12C471.841 12.328 472.009 12.688 472.009 13.2C472.009 13.328 471.993 13.472 471.961 13.632C471.929 13.792 471.873 13.944 471.793 14.088H474.817V15.696H468.769ZM482.733 36.24C481.005 36.24 479.709 35.792 478.845 34.896C477.997 33.984 477.573 32.56 477.573 30.624C477.573 30.304 477.581 29.96 477.597 29.592C477.629 29.208 477.661 28.832 477.693 28.464H482.733V30.144H479.709V30.624C479.709 31.632 479.821 32.424 480.045 33C480.269 33.56 480.597 33.952 481.029 34.176C481.477 34.4 482.029 34.512 482.685 34.512C483.405 34.512 484.029 34.376 484.557 34.104C485.085 33.832 485.493 33.336 485.781 32.616C486.069 31.896 486.213 30.864 486.213 29.52C486.213 27.76 485.909 26.464 485.301 25.632C484.709 24.8 483.677 24.384 482.205 24.384C481.437 24.384 480.701 24.488 479.997 24.696C479.309 24.888 478.645 25.168 478.005 25.536V23.544C478.485 23.288 479.117 23.072 479.901 22.896C480.685 22.704 481.541 22.608 482.469 22.608C483.877 22.608 485.013 22.896 485.877 23.472C486.757 24.032 487.397 24.832 487.797 25.872C488.197 26.896 488.397 28.112 488.397 29.52C488.397 30.928 488.213 32.136 487.845 33.144C487.477 34.152 486.877 34.92 486.045 35.448C485.229 35.976 484.125 36.24 482.733 36.24ZM495.17 36.24C494.738 36.24 494.322 36.168 493.922 36.024C493.522 35.88 493.194 35.624 492.938 35.256C492.682 34.888 492.554 34.376 492.554 33.72V20.544C492.554 19.584 492.322 18.896 491.858 18.48C491.41 18.064 490.834 17.856 490.13 17.856V16.944L491.906 16.176H498.314V17.856H493.442L493.418 17.952C493.77 18.192 494.066 18.56 494.306 19.056C494.562 19.536 494.69 20.168 494.69 20.952V33.456C494.69 33.824 494.77 34.088 494.93 34.248C495.09 34.408 495.346 34.488 495.698 34.488C495.842 34.488 495.994 34.472 496.154 34.44C496.314 34.408 496.466 34.368 496.61 34.32L496.898 35.88C496.594 36.024 496.298 36.12 496.01 36.168C495.722 36.216 495.442 36.24 495.17 36.24ZM499.007 36V27.6C499.007 25.984 499.439 24.752 500.303 23.904C501.167 23.04 502.543 22.608 504.431 22.608C506.335 22.608 507.711 23.04 508.559 23.904C509.423 24.752 509.855 25.984 509.855 27.6V36H507.719V27.6C507.719 25.456 506.615 24.384 504.407 24.384C502.231 24.384 501.143 25.456 501.143 27.6V30.264L501.215 30.288C501.567 29.664 501.999 29.256 502.511 29.064C503.023 28.856 503.743 28.752 504.671 28.752H505.463V30.504H504.671C503.695 30.504 502.951 30.64 502.439 30.912C501.943 31.184 501.599 31.544 501.407 31.992C501.231 32.424 501.143 32.912 501.143 33.456V36H499.007ZM516.389 36.24C515.765 36.24 515.157 36.176 514.565 36.048C513.989 35.92 513.373 35.68 512.717 35.328L513.389 33.696C513.741 33.904 514.141 34.088 514.589 34.248C515.037 34.392 515.557 34.464 516.149 34.464C517.333 34.464 518.253 34.032 518.909 33.168C519.581 32.288 519.917 31.024 519.917 29.376C519.917 27.76 519.573 26.528 518.885 25.68C518.213 24.816 517.173 24.384 515.765 24.384C515.253 24.384 514.733 24.44 514.205 24.552C513.677 24.664 513.213 24.832 512.813 25.056V23.256C513.277 23.016 513.781 22.848 514.325 22.752C514.885 22.656 515.445 22.608 516.005 22.608C517.445 22.608 518.613 22.896 519.509 23.472C520.405 24.032 521.061 24.816 521.477 25.824C521.893 26.832 522.101 28.016 522.101 29.376C522.101 31.488 521.621 33.16 520.661 34.392C519.717 35.624 518.293 36.24 516.389 36.24ZM511.516 20.76V19.824L513.268 19.056H521.716V20.76H511.516ZM530.049 36.24C528.769 36.24 527.761 35.944 527.025 35.352C526.305 34.744 525.793 33.928 525.489 32.904C525.201 31.88 525.057 30.752 525.057 29.52C525.057 27.712 525.305 26.312 525.801 25.32C526.297 24.312 526.985 23.608 527.865 23.208C528.761 22.808 529.793 22.608 530.961 22.608C532.881 22.608 534.273 23.024 535.137 23.856C536.017 24.688 536.457 25.816 536.457 27.24V36H534.345V27.432C534.345 26.44 534.097 25.688 533.601 25.176C533.105 24.648 532.249 24.384 531.033 24.384C530.297 24.384 529.633 24.52 529.041 24.792C528.465 25.064 528.009 25.568 527.673 26.304C527.353 27.04 527.193 28.12 527.193 29.544C527.193 30.472 527.281 31.312 527.457 32.064C527.649 32.8 527.977 33.384 528.441 33.816C528.905 34.248 529.553 34.464 530.385 34.464C530.625 34.464 530.849 34.448 531.057 34.416C531.265 34.384 531.465 34.336 531.657 34.272L531.873 35.928C531.617 36.04 531.321 36.12 530.985 36.168C530.665 36.216 530.353 36.24 530.049 36.24ZM544.559 29.6367H538.84V27.8672H544.559V29.6367ZM553.582 36H551.402V21.5508L547.031 23.1562V21.1875L553.242 18.8555H553.582V36ZM568.242 28.5C567.789 29.0391 567.246 29.4727 566.613 29.8008C565.988 30.1289 565.301 30.293 564.551 30.293C563.566 30.293 562.707 30.0508 561.973 29.5664C561.246 29.082 560.684 28.4023 560.285 27.5273C559.887 26.6445 559.688 25.6719 559.688 24.6094C559.688 23.4688 559.902 22.4414 560.332 21.5273C560.77 20.6133 561.387 19.9141 562.184 19.4297C562.98 18.9453 563.91 18.7031 564.973 18.7031C566.66 18.7031 567.988 19.3359 568.957 20.6016C569.934 21.8594 570.422 23.5781 570.422 25.7578V26.3906C570.422 29.7109 569.766 32.1367 568.453 33.668C567.141 35.1914 565.16 35.9727 562.512 36.0117H562.09V34.1836H562.547C564.336 34.1523 565.711 33.6875 566.672 32.7891C567.633 31.8828 568.156 30.4531 568.242 28.5ZM564.902 28.5C565.629 28.5 566.297 28.2773 566.906 27.832C567.523 27.3867 567.973 26.8359 568.254 26.1797V25.3125C568.254 23.8906 567.945 22.7344 567.328 21.8438C566.711 20.9531 565.93 20.5078 564.984 20.5078C564.031 20.5078 563.266 20.875 562.688 21.6094C562.109 22.3359 561.82 23.2969 561.82 24.4922C561.82 25.6562 562.098 26.6172 562.652 27.375C563.215 28.125 563.965 28.5 564.902 28.5Z" fill="white"/>
<g filter="url(#filter0_d)">
<path d="M26.96 83.9C22.94 83.9 19.85 82.97 17.69 81.11C15.53 79.19 14.45 76.28 14.45 72.38V29.54C14.45 26.18 14.9 23.69 15.8 22.07C16.76 20.45 17.84 19.19 19.04 18.29L18.95 17.93H5L7.52 8.21H36.14V17.93C33.92 17.93 32 18.65 30.38 20.09C28.76 21.53 27.95 24.17 27.95 28.01V70.76C27.95 72.98 29 74.09 31.1 74.09C32 74.09 33.02 73.88 34.16 73.46L35.42 82.1C33.14 83.3 30.32 83.9 26.96 83.9ZM43.1312 83V33.68H53.0312L54.8312 41.42H55.5512C56.5712 38.96 58.3412 36.92 60.8612 35.3C63.3812 33.62 66.6512 32.78 70.6712 32.78C82.1312 32.78 87.8612 38.93 87.8612 51.23V83H74.3612V53.93C74.3612 50.57 73.6712 48.17 72.2912 46.73C70.9712 45.23 69.0212 44.48 66.4412 44.48C63.3212 44.48 60.8912 45.74 59.1512 48.26C57.4712 50.78 56.6312 54.5 56.6312 59.42V83H43.1312ZM129.491 83.9C125.231 83.9 121.781 83.09 119.141 81.47C116.561 79.85 114.731 77.78 113.651 75.26H112.931L111.491 83H101.231V33.68H114.731V57.26C114.731 62.36 115.601 66.14 117.341 68.6C119.081 71 121.541 72.2 124.721 72.2C127.241 72.2 129.161 71.45 130.481 69.95C131.801 68.45 132.461 66.05 132.461 62.75V33.68H145.961V65.72C145.961 71.54 144.551 76.04 141.731 79.22C138.971 82.34 134.891 83.9 129.491 83.9ZM174.265 83.9C170.245 83.9 167.155 82.97 164.995 81.11C162.835 79.19 161.755 76.28 161.755 72.38V29.54C161.755 26.18 162.205 23.69 163.105 22.07C164.065 20.45 165.145 19.19 166.345 18.29L166.255 17.93H152.305L154.825 8.21H183.445V17.93C181.225 17.93 179.305 18.65 177.685 20.09C176.065 21.53 175.255 24.17 175.255 28.01V70.76C175.255 72.98 176.305 74.09 178.405 74.09C179.305 74.09 180.325 73.88 181.465 73.46L182.725 82.1C180.445 83.3 177.625 83.9 174.265 83.9ZM202.774 83.9C197.614 83.9 193.624 82.67 190.804 80.21C188.044 77.75 186.664 74.3 186.664 69.86C186.664 65.06 188.374 61.22 191.794 58.34C195.274 55.46 200.734 53.72 208.174 53.12L217.534 52.4V50.96C217.534 48.08 216.754 46.01 215.194 44.75C213.634 43.49 211.234 42.86 207.994 42.86C204.874 42.86 201.814 43.34 198.814 44.3C195.874 45.2 193.324 46.28 191.164 47.54V36.38C192.904 35.54 195.364 34.7 198.544 33.86C201.724 32.96 205.414 32.51 209.614 32.51C213.694 32.51 217.324 33.11 220.504 34.31C223.684 35.45 226.174 37.4 227.974 40.16C229.834 42.92 230.764 46.7 230.764 51.5V83H217.534V62.12L209.704 62.93C206.104 63.29 203.584 64.01 202.144 65.09C200.764 66.17 200.074 67.61 200.074 69.41C200.074 71.21 200.644 72.56 201.784 73.46C202.984 74.36 204.514 74.81 206.374 74.81C207.094 74.81 207.814 74.75 208.534 74.63C209.254 74.45 209.914 74.27 210.514 74.09L211.684 82.55C210.544 82.97 209.194 83.3 207.634 83.54C206.074 83.78 204.454 83.9 202.774 83.9ZM260.161 83.9C254.701 83.9 250.531 82.31 247.651 79.13C244.771 75.95 243.331 71.27 243.331 65.09V33.68H256.831V62.75C256.831 66.05 257.491 68.45 258.811 69.95C260.131 71.45 262.051 72.2 264.571 72.2C267.751 72.2 270.211 71 271.951 68.6C273.691 66.14 274.561 62.36 274.561 57.26V33.68H288.061V83H277.801L276.361 75.44H275.551C274.531 77.84 272.761 79.85 270.241 81.47C267.781 83.09 264.421 83.9 260.161 83.9ZM271.365 28.82C270.885 27.98 270.495 26.9 270.195 25.58C269.835 24.26 269.655 22.94 269.655 21.62C269.655 19.1 270.405 16.97 271.905 15.23C273.405 13.43 276.255 12.53 280.455 12.53H293.505V21.62H284.865C282.465 21.62 281.265 22.52 281.265 24.32C281.265 25.16 281.505 26.06 281.985 27.02L271.365 28.82Z" fill="#19314D"/>
<path d="M17.69 81.11L17.0256 81.8574L17.0315 81.8626L17.0375 81.8678L17.69 81.11ZM15.8 22.07L14.9397 21.5602L14.9326 21.5722L14.9258 21.5844L15.8 22.07ZM19.04 18.29L19.64 19.09L20.1712 18.6916L20.0101 18.0475L19.04 18.29ZM18.95 17.93L19.9201 17.6875L19.7308 16.93H18.95V17.93ZM5 17.93L4.032 17.679L3.70768 18.93H5V17.93ZM7.52 8.21V7.21H6.7462L6.552 7.95904L7.52 8.21ZM36.14 8.21H37.14V7.21H36.14V8.21ZM36.14 17.93V18.93H37.14V17.93H36.14ZM30.38 20.09L29.7156 19.3426L29.7156 19.3426L30.38 20.09ZM34.16 73.46L35.1495 73.3157L34.9716 72.0953L33.8143 72.5217L34.16 73.46ZM35.42 82.1L35.8857 82.9849L36.5116 82.6555L36.4095 81.9557L35.42 82.1ZM26.96 82.9C23.0822 82.9 20.2589 82.0024 18.3425 80.3522L17.0375 81.8678C19.4411 83.9376 22.7978 84.9 26.96 84.9V82.9ZM18.3544 80.3626C16.4753 78.6923 15.45 76.099 15.45 72.38H13.45C13.45 76.461 14.5847 79.6877 17.0256 81.8574L18.3544 80.3626ZM15.45 72.38V29.54H13.45V72.38H15.45ZM15.45 29.54C15.45 26.2322 15.8994 23.9501 16.6742 22.5556L14.9258 21.5844C13.9006 23.4299 13.45 26.1278 13.45 29.54H15.45ZM16.6603 22.5798C17.5699 21.0449 18.568 19.894 19.64 19.09L18.44 17.49C17.112 18.486 15.9501 19.8551 14.9397 21.5602L16.6603 22.5798ZM20.0101 18.0475L19.9201 17.6875L17.9799 18.1725L18.0699 18.5325L20.0101 18.0475ZM18.95 16.93H5V18.93H18.95V16.93ZM5.968 18.181L8.488 8.46096L6.552 7.95904L4.032 17.679L5.968 18.181ZM7.52 9.21H36.14V7.21H7.52V9.21ZM35.14 8.21V17.93H37.14V8.21H35.14ZM36.14 16.93C33.6816 16.93 31.5235 17.7356 29.7156 19.3426L31.0444 20.8374C32.4765 19.5644 34.1584 18.93 36.14 18.93V16.93ZM29.7156 19.3426C27.7654 21.0761 26.95 24.0908 26.95 28.01H28.95C28.95 24.2492 29.7546 21.9839 31.0444 20.8374L29.7156 19.3426ZM26.95 28.01V70.76H28.95V28.01H26.95ZM26.95 70.76C26.95 72.0107 27.2448 73.1346 28.011 73.9447C28.7872 74.7652 29.8812 75.09 31.1 75.09V73.09C30.2188 73.09 29.7378 72.8598 29.464 72.5703C29.1802 72.2704 28.95 71.7293 28.95 70.76H26.95ZM31.1 75.09C32.1512 75.09 33.2913 74.8458 34.5057 74.3983L33.8143 72.5217C32.7487 72.9142 31.8488 73.09 31.1 73.09V75.09ZM33.1705 73.6043L34.4305 82.2443L36.4095 81.9557L35.1495 73.3157L33.1705 73.6043ZM34.9543 81.2151C32.8549 82.32 30.2054 82.9 26.96 82.9V84.9C30.4346 84.9 33.4251 84.28 35.8857 82.9849L34.9543 81.2151ZM43.1312 83H42.1312V84H43.1312V83ZM43.1312 33.68V32.68H42.1312V33.68H43.1312ZM53.0312 33.68L54.0052 33.4535L53.8253 32.68H53.0312V33.68ZM54.8312 41.42L53.8572 41.6465L54.037 42.42H54.8312V41.42ZM55.5512 41.42V42.42H56.2191L56.4749 41.803L55.5512 41.42ZM60.8612 35.3L61.4019 36.1412L61.4089 36.1367L61.4159 36.132L60.8612 35.3ZM87.8612 83V84H88.8612V83H87.8612ZM74.3612 83H73.3612V84H74.3612V83ZM72.2912 46.73L71.5405 47.3906L71.5545 47.4066L71.5692 47.4219L72.2912 46.73ZM59.1512 48.26L58.3283 47.6918L58.3236 47.6985L58.3191 47.7053L59.1512 48.26ZM56.6312 83V84H57.6312V83H56.6312ZM44.1312 83V33.68H42.1312V83H44.1312ZM43.1312 34.68H53.0312V32.68H43.1312V34.68ZM52.0572 33.9065L53.8572 41.6465L55.8052 41.1935L54.0052 33.4535L52.0572 33.9065ZM54.8312 42.42H55.5512V40.42H54.8312V42.42ZM56.4749 41.803C57.4073 39.5542 59.031 37.6653 61.4019 36.1412L60.3204 34.4588C57.6513 36.1747 55.735 38.3658 54.6274 41.037L56.4749 41.803ZM61.4159 36.132C63.7258 34.5921 66.7852 33.78 70.6712 33.78V31.78C66.5172 31.78 63.0366 32.6479 60.3065 34.4679L61.4159 36.132ZM70.6712 33.78C76.2282 33.78 80.2173 35.2678 82.832 38.0742C85.4592 40.8939 86.8612 45.2173 86.8612 51.23H88.8612C88.8612 44.9427 87.3981 40.0411 84.2953 36.7108C81.1801 33.3672 76.5742 31.78 70.6712 31.78V33.78ZM86.8612 51.23V83H88.8612V51.23H86.8612ZM87.8612 82H74.3612V84H87.8612V82ZM75.3612 83V53.93H73.3612V83H75.3612ZM75.3612 53.93C75.3612 50.4772 74.66 47.7566 73.0132 46.0381L71.5692 47.4219C72.6823 48.5834 73.3612 50.6627 73.3612 53.93H75.3612ZM73.0419 46.0694C71.4801 44.2946 69.2193 43.48 66.4412 43.48V45.48C68.8231 45.48 70.4622 46.1654 71.5405 47.3906L73.0419 46.0694ZM66.4412 43.48C63 43.48 60.2591 44.8954 58.3283 47.6918L59.9741 48.8282C61.5232 46.5846 63.6424 45.48 66.4412 45.48V43.48ZM58.3191 47.7053C56.4807 50.463 55.6312 54.4146 55.6312 59.42H57.6312C57.6312 54.5854 58.4617 51.097 59.9832 48.8147L58.3191 47.7053ZM55.6312 59.42V83H57.6312V59.42H55.6312ZM56.6312 82H43.1312V84H56.6312V82ZM119.141 81.47L118.609 82.3169L118.618 82.3223L119.141 81.47ZM113.651 75.26L114.57 74.8661L114.31 74.26H113.651V75.26ZM112.931 75.26V74.26H112.1L111.948 75.0771L112.931 75.26ZM111.491 83V84H112.322L112.474 83.1829L111.491 83ZM101.231 83H100.231V84H101.231V83ZM101.231 33.68V32.68H100.231V33.68H101.231ZM114.731 33.68H115.731V32.68H114.731V33.68ZM117.341 68.6L116.525 69.1775L116.531 69.187L117.341 68.6ZM130.481 69.95L129.73 69.2894L129.73 69.2894L130.481 69.95ZM132.461 33.68V32.68H131.461V33.68H132.461ZM145.961 33.68H146.961V32.68H145.961V33.68ZM141.731 79.22L140.983 78.5565L140.982 78.5574L141.731 79.22ZM129.491 82.9C125.349 82.9 122.098 82.1114 119.664 80.6177L118.618 82.3223C121.464 84.0686 125.113 84.9 129.491 84.9V82.9ZM119.673 80.6231C117.245 79.0987 115.561 77.1787 114.57 74.8661L112.732 75.6539C113.901 78.3813 115.877 80.6013 118.609 82.3169L119.673 80.6231ZM113.651 74.26H112.931V76.26H113.651V74.26ZM111.948 75.0771L110.508 82.8171L112.474 83.1829L113.914 75.4429L111.948 75.0771ZM111.491 82H101.231V84H111.491V82ZM102.231 83V33.68H100.231V83H102.231ZM101.231 34.68H114.731V32.68H101.231V34.68ZM113.731 33.68V57.26H115.731V33.68H113.731ZM113.731 57.26C113.731 62.4382 114.608 66.4675 116.525 69.1775L118.158 68.0225C116.594 65.8125 115.731 62.2818 115.731 57.26H113.731ZM116.531 69.187C118.475 71.8677 121.248 73.2 124.721 73.2V71.2C121.834 71.2 119.687 70.1323 118.151 68.013L116.531 69.187ZM124.721 73.2C127.448 73.2 129.674 72.3803 131.232 70.6106L129.73 69.2894C128.648 70.5197 127.034 71.2 124.721 71.2V73.2ZM131.232 70.6106C132.789 68.8414 133.461 66.1455 133.461 62.75H131.461C131.461 65.9545 130.813 68.0586 129.73 69.2894L131.232 70.6106ZM133.461 62.75V33.68H131.461V62.75H133.461ZM132.461 34.68H145.961V32.68H132.461V34.68ZM144.961 33.68V65.72H146.961V33.68H144.961ZM144.961 65.72C144.961 71.3863 143.589 75.6176 140.983 78.5565L142.479 79.8835C145.513 76.4624 146.961 71.6937 146.961 65.72H144.961ZM140.982 78.5574C138.465 81.4034 134.695 82.9 129.491 82.9V84.9C135.087 84.9 139.478 83.2766 142.48 79.8826L140.982 78.5574ZM164.995 81.11L164.33 81.8574L164.336 81.8626L164.342 81.8678L164.995 81.11ZM163.105 22.07L162.244 21.5602L162.237 21.5722L162.231 21.5844L163.105 22.07ZM166.345 18.29L166.945 19.09L167.476 18.6916L167.315 18.0475L166.345 18.29ZM166.255 17.93L167.225 17.6875L167.035 16.93H166.255V17.93ZM152.305 17.93L151.337 17.679L151.012 18.93H152.305V17.93ZM154.825 8.21V7.21H154.051L153.857 7.95904L154.825 8.21ZM183.445 8.21H184.445V7.21H183.445V8.21ZM183.445 17.93V18.93H184.445V17.93H183.445ZM177.685 20.09L177.02 19.3426L177.02 19.3426L177.685 20.09ZM181.465 73.46L182.454 73.3157L182.276 72.0953L181.119 72.5217L181.465 73.46ZM182.725 82.1L183.19 82.9849L183.816 82.6555L183.714 81.9557L182.725 82.1ZM174.265 82.9C170.387 82.9 167.564 82.0024 165.647 80.3522L164.342 81.8678C166.746 83.9376 170.103 84.9 174.265 84.9V82.9ZM165.659 80.3626C163.78 78.6923 162.755 76.099 162.755 72.38H160.755C160.755 76.461 161.889 79.6877 164.33 81.8574L165.659 80.3626ZM162.755 72.38V29.54H160.755V72.38H162.755ZM162.755 29.54C162.755 26.2322 163.204 23.9501 163.979 22.5556L162.231 21.5844C161.205 23.4299 160.755 26.1278 160.755 29.54H162.755ZM163.965 22.5798C164.875 21.0449 165.873 19.894 166.945 19.09L165.745 17.49C164.417 18.486 163.255 19.8551 162.244 21.5602L163.965 22.5798ZM167.315 18.0475L167.225 17.6875L165.285 18.1725L165.375 18.5325L167.315 18.0475ZM166.255 16.93H152.305V18.93H166.255V16.93ZM153.273 18.181L155.793 8.46096L153.857 7.95904L151.337 17.679L153.273 18.181ZM154.825 9.21H183.445V7.21H154.825V9.21ZM182.445 8.21V17.93H184.445V8.21H182.445ZM183.445 16.93C180.986 16.93 178.828 17.7356 177.02 19.3426L178.349 20.8374C179.781 19.5644 181.463 18.93 183.445 18.93V16.93ZM177.02 19.3426C175.07 21.0761 174.255 24.0908 174.255 28.01H176.255C176.255 24.2492 177.059 21.9839 178.349 20.8374L177.02 19.3426ZM174.255 28.01V70.76H176.255V28.01H174.255ZM174.255 70.76C174.255 72.0107 174.549 73.1346 175.316 73.9447C176.092 74.7652 177.186 75.09 178.405 75.09V73.09C177.523 73.09 177.043 72.8598 176.769 72.5703C176.485 72.2704 176.255 71.7293 176.255 70.76H174.255ZM178.405 75.09C179.456 75.09 180.596 74.8458 181.81 74.3983L181.119 72.5217C180.053 72.9142 179.153 73.09 178.405 73.09V75.09ZM180.475 73.6043L181.735 82.2443L183.714 81.9557L182.454 73.3157L180.475 73.6043ZM182.259 81.2151C180.16 82.32 177.51 82.9 174.265 82.9V84.9C177.739 84.9 180.73 84.28 183.19 82.9849L182.259 81.2151ZM190.804 80.21L190.139 80.9566L190.147 80.9636L190.804 80.21ZM191.794 58.34L191.157 57.5696L191.15 57.5751L191.794 58.34ZM208.174 53.12L208.098 52.1229L208.094 52.1232L208.174 53.12ZM217.534 52.4L217.611 53.3971L218.534 53.326V52.4H217.534ZM215.194 44.75L214.566 45.5279L214.566 45.5279L215.194 44.75ZM198.814 44.3L199.107 45.2563L199.119 45.2524L198.814 44.3ZM191.164 47.54H190.164V49.281L191.668 48.4038L191.164 47.54ZM191.164 36.38L190.73 35.4794L190.164 35.7523V36.38H191.164ZM198.544 33.86L198.8 34.8268L198.808 34.8246L198.817 34.8222L198.544 33.86ZM220.504 34.31L220.151 35.2456L220.159 35.2485L220.167 35.2513L220.504 34.31ZM227.974 40.16L227.137 40.7063L227.141 40.7126L227.145 40.7189L227.974 40.16ZM230.764 83V84H231.764V83H230.764ZM217.534 83H216.534V84H217.534V83ZM217.534 62.12H218.534V61.0112L217.431 61.1253L217.534 62.12ZM209.704 62.93L209.804 63.925L209.807 63.9247L209.704 62.93ZM202.144 65.09L201.544 64.29L201.536 64.2962L201.528 64.3025L202.144 65.09ZM201.784 73.46L201.165 74.2449L201.174 74.2526L201.184 74.26L201.784 73.46ZM208.534 74.63L208.699 75.6164L208.738 75.6098L208.777 75.6001L208.534 74.63ZM210.514 74.09L211.505 73.953L211.345 72.7968L210.227 73.1322L210.514 74.09ZM211.684 82.55L212.03 83.4883L212.785 83.2101L212.675 82.413L211.684 82.55ZM207.634 83.54L207.786 84.5284L207.786 84.5284L207.634 83.54ZM202.774 82.9C197.764 82.9 194.041 81.7062 191.462 79.4564L190.147 80.9636C193.208 83.6338 197.464 84.9 202.774 84.9V82.9ZM191.47 79.4635C188.965 77.2312 187.664 74.0773 187.664 69.86H185.664C185.664 74.5227 187.123 78.2688 190.139 80.9565L191.47 79.4635ZM187.664 69.86C187.664 65.3303 189.262 61.7796 192.438 59.1049L191.15 57.5751C187.486 60.6604 185.664 64.7897 185.664 69.86H187.664ZM192.432 59.1104C195.681 56.4217 200.898 54.71 208.255 54.1168L208.094 52.1232C200.57 52.73 194.868 54.4983 191.157 57.5696L192.432 59.1104ZM208.251 54.1171L217.611 53.3971L217.458 51.4029L208.098 52.1229L208.251 54.1171ZM218.534 52.4V50.96H216.534V52.4H218.534ZM218.534 50.96C218.534 47.9151 217.707 45.494 215.823 43.9721L214.566 45.5279C215.802 46.526 216.534 48.2449 216.534 50.96H218.534ZM215.823 43.9721C214.004 42.5034 211.332 41.86 207.994 41.86V43.86C211.137 43.86 213.264 44.4766 214.566 45.5279L215.823 43.9721ZM207.994 41.86C204.77 41.86 201.607 42.3564 198.51 43.3476L199.119 45.2524C202.022 44.3236 204.979 43.86 207.994 43.86V41.86ZM198.522 43.3438C195.524 44.2614 192.9 45.3697 190.66 46.6762L191.668 48.4038C193.748 47.1903 196.225 46.1386 199.107 45.2562L198.522 43.3438ZM192.164 47.54V36.38H190.164V47.54H192.164ZM191.599 37.2806C193.255 36.481 195.645 35.6602 198.8 34.8268L198.289 32.8932C195.084 33.7398 192.553 34.599 190.73 35.4794L191.599 37.2806ZM198.817 34.8222C201.888 33.953 205.483 33.51 209.614 33.51V31.51C205.346 31.51 201.561 31.967 198.272 32.8978L198.817 34.8222ZM209.614 33.51C213.597 33.51 217.104 34.0958 220.151 35.2456L220.857 33.3744C217.544 32.1242 213.791 31.51 209.614 31.51V33.51ZM220.167 35.2513C223.147 36.3197 225.459 38.1339 227.137 40.7063L228.812 39.6137C226.89 36.6661 224.222 34.5803 220.842 33.3687L220.167 35.2513ZM227.145 40.7189C228.855 43.2556 229.764 46.8152 229.764 51.5H231.764C231.764 46.5848 230.814 42.5844 228.804 39.6011L227.145 40.7189ZM229.764 51.5V83H231.764V51.5H229.764ZM230.764 82H217.534V84H230.764V82ZM218.534 83V62.12H216.534V83H218.534ZM217.431 61.1253L209.601 61.9353L209.807 63.9247L217.637 63.1147L217.431 61.1253ZM209.605 61.935C205.973 62.2981 203.216 63.0361 201.544 64.29L202.744 65.89C203.952 64.9839 206.236 64.2819 209.804 63.925L209.605 61.935ZM201.528 64.3025C199.898 65.578 199.074 67.3122 199.074 69.41H201.074C201.074 67.9078 201.63 66.762 202.761 65.8775L201.528 64.3025ZM199.074 69.41C199.074 71.4353 199.728 73.1103 201.165 74.2449L202.404 72.6751C201.561 72.0097 201.074 70.9847 201.074 69.41H199.074ZM201.184 74.26C202.595 75.3183 204.351 75.81 206.374 75.81V73.81C204.678 73.81 203.373 73.4017 202.384 72.66L201.184 74.26ZM206.374 75.81C207.15 75.81 207.925 75.7453 208.699 75.6164L208.37 73.6436C207.703 73.7547 207.038 73.81 206.374 73.81V75.81ZM208.777 75.6001C209.509 75.417 210.184 75.233 210.802 75.0478L210.227 73.1322C209.644 73.307 208.999 73.483 208.292 73.6599L208.777 75.6001ZM209.524 74.227L210.694 82.687L212.675 82.413L211.505 73.953L209.524 74.227ZM211.339 81.6117C210.277 82.0029 208.995 82.319 207.482 82.5516L207.786 84.5284C209.394 84.281 210.812 83.9371 212.03 83.4883L211.339 81.6117ZM207.482 82.5516C205.976 82.7834 204.407 82.9 202.774 82.9V84.9C204.502 84.9 206.173 84.7766 207.786 84.5284L207.482 82.5516ZM247.651 79.13L248.392 78.4587L248.392 78.4587L247.651 79.13ZM243.331 33.68V32.68H242.331V33.68H243.331ZM256.831 33.68H257.831V32.68H256.831V33.68ZM258.811 69.95L259.562 69.2894L259.562 69.2894L258.811 69.95ZM271.951 68.6L272.761 69.187L272.768 69.1775L271.951 68.6ZM274.561 33.68V32.68H273.561V33.68H274.561ZM288.061 33.68H289.061V32.68H288.061V33.68ZM288.061 83V84H289.061V83H288.061ZM277.801 83L276.819 83.1871L276.974 84H277.801V83ZM276.361 75.44L277.344 75.2529L277.189 74.44H276.361V75.44ZM275.551 75.44V74.44H274.89L274.631 75.0489L275.551 75.44ZM270.241 81.47L269.7 80.6288L269.691 80.6348L270.241 81.47ZM260.161 82.9C254.902 82.9 251.034 81.3754 248.392 78.4587L246.91 79.8013C250.029 83.2446 254.501 84.9 260.161 84.9V82.9ZM248.392 78.4587C245.74 75.5295 244.331 71.13 244.331 65.09H242.331C242.331 71.41 243.803 76.3705 246.91 79.8013L248.392 78.4587ZM244.331 65.09V33.68H242.331V65.09H244.331ZM243.331 34.68H256.831V32.68H243.331V34.68ZM255.831 33.68V62.75H257.831V33.68H255.831ZM255.831 62.75C255.831 66.1455 256.504 68.8414 258.061 70.6106L259.562 69.2894C258.479 68.0586 257.831 65.9545 257.831 62.75H255.831ZM258.061 70.6106C259.618 72.3803 261.845 73.2 264.571 73.2V71.2C262.258 71.2 260.645 70.5197 259.562 69.2894L258.061 70.6106ZM264.571 73.2C268.044 73.2 270.817 71.8677 272.761 69.187L271.142 68.013C269.605 70.1323 267.458 71.2 264.571 71.2V73.2ZM272.768 69.1775C274.685 66.4675 275.561 62.4382 275.561 57.26H273.561C273.561 62.2818 272.698 65.8125 271.135 68.0225L272.768 69.1775ZM275.561 57.26V33.68H273.561V57.26H275.561ZM274.561 34.68H288.061V32.68H274.561V34.68ZM287.061 33.68V83H289.061V33.68H287.061ZM288.061 82H277.801V84H288.061V82ZM278.784 82.8129L277.344 75.2529L275.379 75.6271L276.819 83.1871L278.784 82.8129ZM276.361 74.44H275.551V76.44H276.361V74.44ZM274.631 75.0489C273.701 77.2377 272.078 79.1007 269.7 80.6288L270.782 82.3112C273.445 80.5993 275.362 78.4423 276.472 75.8311L274.631 75.0489ZM269.691 80.6348C267.452 82.1093 264.309 82.9 260.161 82.9V84.9C264.534 84.9 268.11 84.0707 270.791 82.3052L269.691 80.6348ZM271.365 28.82L270.497 29.3161L270.843 29.9227L271.532 29.8059L271.365 28.82ZM270.195 25.58L271.17 25.3584L271.165 25.3375L271.16 25.3169L270.195 25.58ZM271.905 15.23L272.662 15.8829L272.668 15.8766L272.673 15.8702L271.905 15.23ZM293.505 12.53H294.505V11.53H293.505V12.53ZM293.505 21.62V22.62H294.505V21.62H293.505ZM281.985 27.02L282.152 28.0059L283.483 27.7803L282.879 26.5728L281.985 27.02ZM272.233 28.3239C271.817 27.5962 271.456 26.6174 271.17 25.3584L269.22 25.8016C269.534 27.1826 269.952 28.3638 270.497 29.3161L272.233 28.3239ZM271.16 25.3169C270.822 24.0795 270.655 22.8479 270.655 21.62H268.655C268.655 23.0321 268.848 24.4405 269.23 25.8431L271.16 25.3169ZM270.655 21.62C270.655 19.3147 271.334 17.4233 272.662 15.8829L271.147 14.5771C269.475 16.5167 268.655 18.8853 268.655 21.62H270.655ZM272.673 15.8702C273.876 14.4262 276.33 13.53 280.455 13.53V11.53C276.179 11.53 272.933 12.4338 271.137 14.5898L272.673 15.8702ZM280.455 13.53H293.505V11.53H280.455V13.53ZM292.505 12.53V21.62H294.505V12.53H292.505ZM293.505 20.62H284.865V22.62H293.505V20.62ZM284.865 20.62C283.569 20.62 282.414 20.8579 281.565 21.495C280.661 22.1726 280.265 23.176 280.265 24.32H282.265C282.265 23.664 282.468 23.3174 282.765 23.095C283.115 22.832 283.761 22.62 284.865 22.62V20.62ZM280.265 24.32C280.265 25.3523 280.56 26.4058 281.09 27.4672L282.879 26.5728C282.45 25.7142 282.265 24.9677 282.265 24.32H280.265ZM281.818 26.0341L271.198 27.8341L271.532 29.8059L282.152 28.0059L281.818 26.0341Z" fill="white"/>
</g>
<path d="M13.28 132.36C11.168 132.36 9.548 131.88 8.42 130.92C7.316 129.936 6.764 128.532 6.764 126.708C6.764 124.716 7.484 123.18 8.924 122.1C10.388 121.02 12.752 120.384 16.016 120.192L19.472 119.976V118.86C19.472 117.3 19.112 116.196 18.392 115.548C17.696 114.876 16.52 114.54 14.864 114.54C13.664 114.54 12.512 114.708 11.408 115.044C10.328 115.356 9.296 115.8 8.312 116.376V113.388C9.008 113.028 9.944 112.692 11.12 112.38C12.32 112.068 13.664 111.912 15.152 111.912C16.112 111.912 16.964 111.996 17.708 112.164C18.476 112.332 19.112 112.62 19.616 113.028C20.024 112.836 20.372 112.572 20.66 112.236C20.948 111.9 21.092 111.48 21.092 110.976H24.224C24.224 111.888 23.96 112.656 23.432 113.28C22.928 113.904 22.28 114.384 21.488 114.72C21.896 115.152 22.184 115.704 22.352 116.376C22.544 117.048 22.64 117.816 22.64 118.68V132H19.472V122.64L16.448 122.856C14 123.024 12.308 123.408 11.372 124.008C10.46 124.608 10.004 125.484 10.004 126.636C10.004 127.716 10.34 128.508 11.012 129.012C11.708 129.516 12.668 129.768 13.892 129.768C14.684 129.768 15.38 129.66 15.98 129.444L16.484 131.856C16.028 132.024 15.524 132.144 14.972 132.216C14.444 132.312 13.88 132.36 13.28 132.36ZM7.34366 109.14V107.736L9.97166 106.584H14.7597V103.668H17.4237V106.584H20.0157V103.668H22.6437V109.14H7.34366ZM17.2642 101.544V95.676H20.3242V101.544H17.2642ZM35.5016 132.36C32.9096 132.36 30.9656 131.688 29.6696 130.344C28.3976 128.976 27.7616 126.84 27.7616 123.936C27.7616 123.456 27.7736 122.94 27.7976 122.388C27.8456 121.812 27.8936 121.248 27.9416 120.696H35.5016V123.216H30.9656V123.936C30.9656 125.448 31.1336 126.636 31.4696 127.5C31.8056 128.34 32.2976 128.928 32.9456 129.264C33.6176 129.6 34.4456 129.768 35.4296 129.768C36.5096 129.768 37.4456 129.564 38.2376 129.156C39.0296 128.748 39.6416 128.004 40.0736 126.924C40.5056 125.844 40.7216 124.296 40.7216 122.28C40.7216 119.64 40.2656 117.696 39.3536 116.448C38.4656 115.2 36.9176 114.576 34.7096 114.576C33.5576 114.576 32.4536 114.732 31.3976 115.044C30.3656 115.332 29.3696 115.752 28.4096 116.304V113.316C29.1296 112.932 30.0776 112.608 31.2536 112.344C32.4296 112.056 33.7136 111.912 35.1056 111.912C37.2176 111.912 38.9216 112.344 40.2176 113.208C41.5376 114.048 42.4976 115.248 43.0976 116.808C43.6976 118.344 43.9976 120.168 43.9976 122.28C43.9976 124.392 43.7216 126.204 43.1696 127.716C42.6176 129.228 41.7176 130.38 40.4696 131.172C39.2456 131.964 37.5896 132.36 35.5016 132.36ZM54.5534 132.36C52.4414 132.36 50.8214 131.88 49.6934 130.92C48.5894 129.936 48.0374 128.532 48.0374 126.708C48.0374 124.716 48.7574 123.18 50.1974 122.1C51.6614 121.02 54.0254 120.384 57.2894 120.192L60.7454 119.976V118.86C60.7454 117.3 60.3854 116.196 59.6654 115.548C58.9694 114.876 57.7934 114.54 56.1374 114.54C54.9374 114.54 53.7854 114.708 52.6814 115.044C51.6014 115.356 50.5694 115.8 49.5854 116.376V113.388C50.2814 113.028 51.2174 112.692 52.3934 112.38C53.5934 112.068 54.9374 111.912 56.4254 111.912C57.3854 111.912 58.2374 111.996 58.9814 112.164C59.7494 112.332 60.3854 112.62 60.8894 113.028C61.2974 112.836 61.6454 112.572 61.9334 112.236C62.2214 111.9 62.3654 111.48 62.3654 110.976H65.4974C65.4974 111.888 65.2334 112.656 64.7054 113.28C64.2014 113.904 63.5534 114.384 62.7614 114.72C63.1694 115.152 63.4574 115.704 63.6254 116.376C63.8174 117.048 63.9134 117.816 63.9134 118.68V132H60.7454V122.64L57.7214 122.856C55.2734 123.024 53.5814 123.408 52.6454 124.008C51.7334 124.608 51.2774 125.484 51.2774 126.636C51.2774 127.716 51.6134 128.508 52.2854 129.012C52.9814 129.516 53.9414 129.768 55.1654 129.768C55.9574 129.768 56.6534 129.66 57.2534 129.444L57.7574 131.856C57.3014 132.024 56.7974 132.144 56.2454 132.216C55.7174 132.312 55.1534 132.36 54.5534 132.36ZM75.371 132V117.996C75.371 116.82 75.095 115.956 74.543 115.404C74.015 114.852 73.115 114.576 71.843 114.576C70.979 114.576 70.163 114.696 69.395 114.936C68.651 115.152 67.931 115.464 67.235 115.872V112.992C67.715 112.752 68.399 112.512 69.287 112.272C70.175 112.032 71.231 111.912 72.455 111.912C74.327 111.912 75.815 112.332 76.919 113.172C78.023 114.012 78.575 115.464 78.575 117.528V132H75.371ZM89.96 132.36C88.544 132.36 87.224 132.228 86 131.964C84.8 131.676 83.78 131.34 82.94 130.956L83.876 128.364C84.644 128.676 85.556 128.976 86.612 129.264C87.692 129.552 88.832 129.696 90.032 129.696C91.304 129.696 92.36 129.456 93.2 128.976C94.04 128.496 94.46 127.8 94.46 126.888C94.46 126.072 94.124 125.4 93.452 124.872C92.78 124.344 91.7 123.852 90.212 123.396C88.7 122.916 87.416 122.412 86.36 121.884C85.328 121.332 84.536 120.684 83.984 119.94C83.456 119.172 83.192 118.224 83.192 117.096C83.192 115.608 83.804 114.372 85.028 113.388C86.252 112.404 88.208 111.912 90.896 111.912C92.048 111.912 93.128 112.02 94.136 112.236C95.168 112.428 95.972 112.704 96.548 113.064V115.764C95.948 115.476 95.12 115.2 94.064 114.936C93.008 114.672 91.916 114.54 90.788 114.54C89.18 114.54 88.04 114.792 87.368 115.296C86.72 115.776 86.396 116.328 86.396 116.952C86.396 117.48 86.54 117.924 86.828 118.284C87.14 118.644 87.656 118.992 88.376 119.328C89.12 119.664 90.116 120.048 91.364 120.48C92.516 120.864 93.572 121.308 94.532 121.812C95.492 122.316 96.248 122.952 96.8 123.72C97.376 124.464 97.664 125.424 97.664 126.6C97.664 127.608 97.412 128.556 96.908 129.444C96.428 130.308 95.624 131.016 94.496 131.568C93.368 132.096 91.856 132.36 89.96 132.36ZM101.994 132V119.4C101.994 116.976 102.642 115.128 103.938 113.856C105.234 112.56 107.298 111.912 110.13 111.912C112.986 111.912 115.05 112.56 116.322 113.856C117.618 115.128 118.266 116.976 118.266 119.4V132H115.062V119.4C115.062 116.184 113.406 114.576 110.094 114.576C106.83 114.576 105.198 116.184 105.198 119.4V123.396L105.306 123.432C105.834 122.496 106.482 121.884 107.25 121.596C108.018 121.284 109.098 121.128 110.49 121.128H111.678V123.756H110.49C109.026 123.756 107.91 123.96 107.142 124.368C106.398 124.776 105.882 125.316 105.594 125.988C105.33 126.636 105.198 127.368 105.198 128.184V132H101.994ZM128.067 132.36C127.131 132.36 126.219 132.264 125.331 132.072C124.467 131.88 123.543 131.52 122.559 130.992L123.567 128.544C124.095 128.856 124.695 129.132 125.367 129.372C126.039 129.588 126.819 129.696 127.707 129.696C129.483 129.696 130.863 129.048 131.847 127.752C132.855 126.432 133.359 124.536 133.359 122.064C133.359 119.64 132.843 117.792 131.811 116.52C130.803 115.224 129.243 114.576 127.131 114.576C126.363 114.576 125.583 114.66 124.791 114.828C123.999 114.996 123.303 115.248 122.703 115.584V112.884C123.399 112.524 124.155 112.272 124.971 112.128C125.811 111.984 126.651 111.912 127.491 111.912C129.651 111.912 131.403 112.344 132.747 113.208C134.091 114.048 135.075 115.224 135.699 116.736C136.323 118.248 136.635 120.024 136.635 122.064C136.635 125.232 135.915 127.74 134.475 129.588C133.059 131.436 130.923 132.36 128.067 132.36ZM147.406 132V117.996C147.406 116.82 147.13 115.956 146.578 115.404C146.05 114.852 145.15 114.576 143.878 114.576C143.014 114.576 142.198 114.696 141.43 114.936C140.686 115.152 139.966 115.464 139.27 115.872V112.992C139.75 112.752 140.434 112.512 141.322 112.272C142.21 112.032 143.266 111.912 144.49 111.912C146.362 111.912 147.85 112.332 148.954 113.172C150.058 114.012 150.61 115.464 150.61 117.528V132H147.406ZM165.955 132.36C164.419 132.36 163.087 132.06 161.959 131.46C160.855 130.836 160.099 129.972 159.691 128.868H159.547L159.367 132H156.739V112.272H159.943V123.684C159.943 125.508 160.411 126.96 161.347 128.04C162.283 129.12 163.603 129.66 165.307 129.66C168.115 129.66 169.519 128.196 169.519 125.268V112.272H172.723V125.484C172.723 127.86 172.123 129.6 170.923 130.704C169.747 131.808 168.091 132.36 165.955 132.36ZM183.028 132.36C182.38 132.36 181.756 132.252 181.156 132.036C180.556 131.82 180.064 131.436 179.68 130.884C179.296 130.332 179.104 129.564 179.104 128.58V112.272H182.308V128.184C182.308 128.736 182.428 129.132 182.668 129.372C182.908 129.612 183.292 129.732 183.82 129.732C184.036 129.732 184.264 129.708 184.504 129.66C184.744 129.612 184.972 129.552 185.188 129.48L185.62 131.82C185.164 132.036 184.72 132.18 184.288 132.252C183.856 132.324 183.436 132.36 183.028 132.36ZM194.194 132.36C192.082 132.36 190.462 131.88 189.334 130.92C188.23 129.936 187.678 128.532 187.678 126.708C187.678 124.716 188.398 123.18 189.838 122.1C191.302 121.02 193.666 120.384 196.93 120.192L200.386 119.976V118.86C200.386 117.3 200.026 116.196 199.306 115.548C198.61 114.876 197.434 114.54 195.778 114.54C194.578 114.54 193.426 114.708 192.322 115.044C191.242 115.356 190.21 115.8 189.226 116.376V113.388C189.922 113.028 190.858 112.692 192.034 112.38C193.234 112.068 194.578 111.912 196.066 111.912C197.026 111.912 197.878 111.996 198.622 112.164C199.39 112.332 200.026 112.62 200.53 113.028C200.938 112.836 201.286 112.572 201.574 112.236C201.862 111.9 202.006 111.48 202.006 110.976H205.138C205.138 111.888 204.874 112.656 204.346 113.28C203.842 113.904 203.194 114.384 202.402 114.72C202.81 115.152 203.098 115.704 203.266 116.376C203.458 117.048 203.554 117.816 203.554 118.68V132H200.386V122.64L197.362 122.856C194.914 123.024 193.222 123.408 192.286 124.008C191.374 124.608 190.918 125.484 190.918 126.636C190.918 127.716 191.254 128.508 191.926 129.012C192.622 129.516 193.582 129.768 194.806 129.768C195.598 129.768 196.294 129.66 196.894 129.444L197.398 131.856C196.942 132.024 196.438 132.144 195.886 132.216C195.358 132.312 194.794 132.36 194.194 132.36ZM188.258 109.14V107.736L190.886 106.584H200.57V103.668H203.594V107.736H203.558V109.14H188.258ZM200.534 101.544V95.676H203.594V101.544H200.534ZM217.028 132.324C214.124 132.324 212.072 131.772 210.872 130.668C209.672 129.564 209.072 128.076 209.072 126.204C209.072 125.1 209.228 124.224 209.54 123.576C209.876 122.904 210.284 122.412 210.764 122.1C211.268 121.788 211.784 121.584 212.312 121.488V121.344C211.832 121.2 211.328 120.96 210.8 120.624C210.272 120.288 209.828 119.82 209.468 119.22C209.132 118.62 208.964 117.864 208.964 116.952C208.964 116.112 209.156 115.32 209.54 114.576C209.924 113.832 210.548 113.22 211.412 112.74C212.276 112.26 213.416 112.02 214.832 112.02C215.408 112.02 216.008 112.068 216.632 112.164C217.256 112.236 217.736 112.368 218.072 112.56L217.496 115.044C217.232 114.948 216.884 114.864 216.452 114.792C216.044 114.696 215.612 114.648 215.156 114.648C214.148 114.648 213.404 114.888 212.924 115.368C212.444 115.824 212.204 116.436 212.204 117.204C212.204 118.044 212.408 118.68 212.816 119.112C213.248 119.544 213.788 119.844 214.436 120.012C215.108 120.156 215.804 120.228 216.524 120.228H217.208V122.568H216.524C215.084 122.568 214.016 122.832 213.32 123.36C212.648 123.864 212.312 124.716 212.312 125.916C212.312 126.612 212.444 127.248 212.708 127.824C212.996 128.4 213.476 128.856 214.148 129.192C214.844 129.528 215.804 129.696 217.028 129.696C218.852 129.696 220.1 129.324 220.772 128.58C221.444 127.812 221.78 126.768 221.78 125.448V112.272H224.984V125.232C224.984 127.752 224.336 129.564 223.04 130.668C221.768 131.772 219.764 132.324 217.028 132.324ZM234.047 132L227.891 112.272H231.131L236.459 129.228H236.891C237.467 129.228 238.031 129.096 238.583 128.832C239.135 128.544 239.603 128.184 239.987 127.752C240.707 126.96 241.235 125.964 241.571 124.764C241.907 123.54 242.075 122.34 242.075 121.164C242.075 119.172 241.619 117.612 240.707 116.484C239.819 115.332 238.583 114.756 236.999 114.756C236.351 114.756 235.799 114.84 235.343 115.008L234.551 112.452C235.055 112.308 235.523 112.212 235.955 112.164C236.411 112.116 236.819 112.092 237.179 112.092C239.531 112.092 241.415 112.776 242.831 114.144C243.671 114.96 244.283 115.98 244.667 117.204C245.075 118.428 245.279 119.784 245.279 121.272C245.279 123.144 244.991 124.812 244.415 126.276C243.839 127.716 243.119 128.868 242.255 129.732C241.559 130.428 240.707 130.98 239.699 131.388C238.691 131.796 237.407 132 235.847 132H234.047ZM263.536 132.36C262.888 132.36 262.264 132.252 261.664 132.036C261.064 131.82 260.572 131.436 260.188 130.884C259.804 130.332 259.612 129.564 259.612 128.58V112.272H262.816V128.184C262.816 128.736 262.936 129.132 263.176 129.372C263.416 129.612 263.8 129.732 264.328 129.732C264.544 129.732 264.772 129.708 265.012 129.66C265.252 129.612 265.48 129.552 265.696 129.48L266.128 131.82C265.672 132.036 265.228 132.18 264.796 132.252C264.364 132.324 263.944 132.36 263.536 132.36ZM271.145 132L267.581 112.272H270.857L272.261 120.84C272.381 121.536 272.501 122.436 272.621 123.54C272.741 124.644 272.885 125.952 273.053 127.464H273.161C273.473 125.928 273.773 124.608 274.061 123.504C274.373 122.4 274.637 121.476 274.853 120.732L277.265 112.272H279.893L282.341 120.732C282.557 121.476 282.809 122.4 283.097 123.504C283.409 124.608 283.721 125.928 284.033 127.464H284.177C284.321 125.952 284.453 124.644 284.573 123.54C284.693 122.436 284.813 121.536 284.933 120.84L286.373 112.272H289.649L286.085 132H282.953L279.641 121.272C279.473 120.672 279.305 120.048 279.137 119.4C278.993 118.752 278.849 117.9 278.705 116.844H278.561C278.393 117.9 278.225 118.764 278.057 119.436C277.889 120.084 277.709 120.696 277.517 121.272L274.277 132H271.145ZM272.844 109.14V107.736L275.472 106.584H280.26V103.668H282.924V106.584H285.516V103.668H288.144V109.14H272.844ZM282.764 101.544V95.676H285.824V101.544H282.764ZM301.037 132.36C298.445 132.36 296.501 131.688 295.205 130.344C293.933 128.976 293.297 126.84 293.297 123.936C293.297 123.456 293.309 122.94 293.333 122.388C293.381 121.812 293.429 121.248 293.477 120.696H301.037V123.216H296.501V123.936C296.501 125.448 296.669 126.636 297.005 127.5C297.341 128.34 297.833 128.928 298.481 129.264C299.153 129.6 299.981 129.768 300.965 129.768C302.045 129.768 302.981 129.564 303.773 129.156C304.565 128.748 305.177 128.004 305.609 126.924C306.041 125.844 306.257 124.296 306.257 122.28C306.257 119.64 305.801 117.696 304.889 116.448C304.001 115.2 302.453 114.576 300.245 114.576C299.093 114.576 297.989 114.732 296.933 115.044C295.901 115.332 294.905 115.752 293.945 116.304V113.316C294.665 112.932 295.613 112.608 296.789 112.344C297.965 112.056 299.249 111.912 300.641 111.912C302.753 111.912 304.457 112.344 305.753 113.208C307.073 114.048 308.033 115.248 308.633 116.808C309.233 118.344 309.533 120.168 309.533 122.28C309.533 124.392 309.257 126.204 308.705 127.716C308.153 129.228 307.253 130.38 306.005 131.172C304.781 131.964 303.125 132.36 301.037 132.36ZM314.725 132V119.4C314.725 116.976 315.373 115.128 316.669 113.856C317.965 112.56 320.029 111.912 322.861 111.912C325.717 111.912 327.781 112.56 329.053 113.856C330.349 115.128 330.997 116.976 330.997 119.4V132H327.793V119.4C327.793 116.184 326.137 114.576 322.825 114.576C319.561 114.576 317.929 116.184 317.929 119.4V123.396L318.037 123.432C318.565 122.496 319.213 121.884 319.981 121.596C320.749 121.284 321.829 121.128 323.221 121.128H324.409V123.756H323.221C321.757 123.756 320.641 123.96 319.873 124.368C319.129 124.776 318.613 125.316 318.325 125.988C318.061 126.636 317.929 127.368 317.929 128.184V132H314.725ZM340.798 132.36C339.862 132.36 338.95 132.264 338.062 132.072C337.198 131.88 336.274 131.52 335.29 130.992L336.298 128.544C336.826 128.856 337.426 129.132 338.098 129.372C338.77 129.588 339.55 129.696 340.438 129.696C342.214 129.696 343.594 129.048 344.578 127.752C345.586 126.432 346.09 124.536 346.09 122.064C346.09 119.64 345.574 117.792 344.542 116.52C343.534 115.224 341.974 114.576 339.862 114.576C339.094 114.576 338.314 114.66 337.522 114.828C336.73 114.996 336.034 115.248 335.434 115.584V112.884C336.13 112.524 336.886 112.272 337.702 112.128C338.542 111.984 339.382 111.912 340.222 111.912C342.382 111.912 344.134 112.344 345.478 113.208C346.822 114.048 347.806 115.224 348.43 116.736C349.054 118.248 349.366 120.024 349.366 122.064C349.366 125.232 348.646 127.74 347.206 129.588C345.79 131.436 343.654 132.36 340.798 132.36ZM362.477 132.36C359.645 132.36 357.617 131.712 356.393 130.416C355.169 129.12 354.557 127.272 354.557 124.872V112.272H357.761V124.908C357.761 128.1 359.333 129.696 362.477 129.696C364.109 129.696 365.309 129.3 366.077 128.508C366.869 127.716 367.265 126.516 367.265 124.908V112.272H370.469V124.872C370.469 127.272 369.845 129.12 368.597 130.416C367.373 131.712 365.333 132.36 362.477 132.36ZM376.283 132V119.4C376.283 116.976 376.931 115.128 378.227 113.856C379.523 112.56 381.587 111.912 384.419 111.912C387.275 111.912 389.339 112.56 390.611 113.856C391.907 115.128 392.555 116.976 392.555 119.4V132H389.351V119.4C389.351 116.184 387.695 114.576 384.383 114.576C381.119 114.576 379.487 116.184 379.487 119.4V123.396L379.595 123.432C380.123 122.496 380.771 121.884 381.539 121.596C382.307 121.284 383.387 121.128 384.779 121.128H385.967V123.756H384.779C383.315 123.756 382.199 123.96 381.431 124.368C380.687 124.776 380.171 125.316 379.883 125.988C379.619 126.636 379.487 127.368 379.487 128.184V132H376.283ZM389.678 141.396V137.58C389.678 136.98 389.414 136.68 388.886 136.68C388.766 136.68 388.646 136.692 388.526 136.716C388.382 136.74 388.25 136.776 388.13 136.824L387.878 134.664C388.238 134.544 388.634 134.448 389.066 134.376C389.474 134.328 389.81 134.304 390.074 134.304C390.914 134.304 391.538 134.496 391.946 134.88C392.33 135.288 392.522 135.84 392.522 136.536V141.396H389.678ZM407.9 132.36C406.364 132.36 405.032 132.06 403.904 131.46C402.8 130.836 402.044 129.972 401.636 128.868H401.492L401.312 132H398.684V112.272H401.888V123.684C401.888 125.508 402.356 126.96 403.292 128.04C404.228 129.12 405.548 129.66 407.252 129.66C410.06 129.66 411.464 128.196 411.464 125.268V112.272H414.668V125.484C414.668 127.86 414.068 129.6 412.868 130.704C411.692 131.808 410.036 132.36 407.9 132.36ZM425.478 132.36C424.83 132.36 424.206 132.252 423.606 132.036C423.006 131.82 422.514 131.436 422.13 130.884C421.746 130.332 421.554 129.564 421.554 128.58V108.816C421.554 107.376 421.206 106.344 420.51 105.72C419.838 105.096 418.974 104.784 417.918 104.784V103.416L420.582 102.264H430.194V104.784H422.886L422.85 104.928C423.378 105.288 423.822 105.84 424.182 106.584C424.566 107.304 424.758 108.252 424.758 109.428V128.184C424.758 128.736 424.878 129.132 425.118 129.372C425.358 129.612 425.742 129.732 426.27 129.732C426.486 129.732 426.714 129.708 426.954 129.66C427.194 129.612 427.422 129.552 427.638 129.48L428.07 131.82C427.614 132.036 427.17 132.18 426.738 132.252C426.306 132.324 425.886 132.36 425.478 132.36ZM436.776 132.36C435.36 132.36 434.04 132.228 432.816 131.964C431.616 131.676 430.596 131.34 429.756 130.956L430.692 128.364C431.46 128.676 432.372 128.976 433.428 129.264C434.508 129.552 435.648 129.696 436.848 129.696C438.12 129.696 439.176 129.456 440.016 128.976C440.856 128.496 441.276 127.8 441.276 126.888C441.276 126.072 440.94 125.4 440.268 124.872C439.596 124.344 438.516 123.852 437.028 123.396C435.516 122.916 434.232 122.412 433.176 121.884C432.144 121.332 431.352 120.684 430.8 119.94C430.272 119.172 430.008 118.224 430.008 117.096C430.008 115.608 430.62 114.372 431.844 113.388C433.068 112.404 435.024 111.912 437.712 111.912C438.864 111.912 439.944 112.02 440.952 112.236C441.984 112.428 442.788 112.704 443.364 113.064V115.764C442.764 115.476 441.936 115.2 440.88 114.936C439.824 114.672 438.732 114.54 437.604 114.54C435.996 114.54 434.856 114.792 434.184 115.296C433.536 115.776 433.212 116.328 433.212 116.952C433.212 117.48 433.356 117.924 433.644 118.284C433.956 118.644 434.472 118.992 435.192 119.328C435.936 119.664 436.932 120.048 438.18 120.48C439.332 120.864 440.388 121.308 441.348 121.812C442.308 122.316 443.064 122.952 443.616 123.72C444.192 124.464 444.48 125.424 444.48 126.6C444.48 127.608 444.228 128.556 443.724 129.444C443.244 130.308 442.44 131.016 441.312 131.568C440.184 132.096 438.672 132.36 436.776 132.36ZM448.811 132V119.4C448.811 116.976 449.459 115.128 450.755 113.856C452.051 112.56 454.115 111.912 456.947 111.912C459.803 111.912 461.867 112.56 463.139 113.856C464.435 115.128 465.083 116.976 465.083 119.4V132H461.879V119.4C461.879 116.184 460.223 114.576 456.911 114.576C453.647 114.576 452.015 116.184 452.015 119.4V123.396L452.123 123.432C452.651 122.496 453.299 121.884 454.067 121.596C454.835 121.284 455.915 121.128 457.307 121.128H458.495V123.756H457.307C455.843 123.756 454.727 123.96 453.959 124.368C453.215 124.776 452.699 125.316 452.411 125.988C452.147 126.636 452.015 127.368 452.015 128.184V132H448.811Z" fill="white"/>
<path d="M330.975 83.55C328.628 83.55 326.593 83.0917 324.87 82.175C323.183 81.2217 322.028 79.9017 321.405 78.215H321.185L320.91 83H316.895V52.86H321.79V70.295C321.79 73.0817 322.505 75.3 323.935 76.95C325.365 78.6 327.382 79.425 329.985 79.425C334.275 79.425 336.42 77.1883 336.42 72.715V52.86H341.315V73.045C341.315 76.675 340.398 79.3333 338.565 81.02C336.768 82.7067 334.238 83.55 330.975 83.55ZM350.679 83V52.86H355.574V65.895H355.739L368.279 52.86H373.999V53.025L365.144 61.99C368.114 62.2467 370.369 63.2917 371.909 65.125C373.486 66.9217 374.274 69.305 374.274 72.275V83H369.379V72.385C369.379 70.3317 368.774 68.7 367.564 67.49C366.391 66.28 364.411 65.62 361.624 65.51L355.574 71.67V83H350.679ZM391.044 83V61.605C391.044 59.8083 390.623 58.4883 389.779 57.645C388.973 56.8017 387.598 56.38 385.654 56.38C384.334 56.38 383.088 56.5633 381.914 56.93C380.778 57.26 379.678 57.7367 378.614 58.36V53.96C379.348 53.5933 380.393 53.2267 381.749 52.86C383.106 52.4933 384.719 52.31 386.589 52.31C389.449 52.31 391.723 52.9517 393.409 54.235C395.096 55.5183 395.939 57.7367 395.939 60.89V83H391.044ZM413.058 83.55C409.832 83.55 407.357 82.8167 405.633 81.35C403.947 79.8467 403.103 77.7017 403.103 74.915C403.103 71.8717 404.203 69.525 406.403 67.875C408.64 66.225 412.252 65.2533 417.238 64.96L422.518 64.63V62.925C422.518 60.5417 421.968 58.855 420.868 57.865C419.805 56.8383 418.008 56.325 415.478 56.325C413.645 56.325 411.885 56.5817 410.198 57.095C408.548 57.5717 406.972 58.25 405.468 59.13V54.565C406.532 54.015 407.962 53.5017 409.758 53.025C411.592 52.5483 413.645 52.31 415.918 52.31C417.385 52.31 418.687 52.4383 419.823 52.695C420.997 52.9517 421.968 53.3917 422.738 54.015C423.362 53.7217 423.893 53.3183 424.333 52.805C424.773 52.2917 424.993 51.65 424.993 50.88H429.778C429.778 52.2733 429.375 53.4467 428.568 54.4C427.798 55.3533 426.808 56.0867 425.598 56.6C426.222 57.26 426.662 58.1033 426.918 59.13C427.212 60.1567 427.358 61.33 427.358 62.65V83H422.518V68.7L417.898 69.03C414.158 69.2867 411.573 69.8733 410.143 70.79C408.75 71.7067 408.053 73.045 408.053 74.805C408.053 76.455 408.567 77.665 409.593 78.435C410.657 79.205 412.123 79.59 413.993 79.59C415.203 79.59 416.267 79.425 417.183 79.095L417.953 82.78C417.257 83.0367 416.487 83.22 415.643 83.33C414.837 83.4767 413.975 83.55 413.058 83.55ZM444.863 83V61.605C444.863 59.8083 444.441 58.4883 443.598 57.645C442.791 56.8017 441.416 56.38 439.473 56.38C438.153 56.38 436.906 56.5633 435.733 56.93C434.596 57.26 433.496 57.7367 432.433 58.36V53.96C433.166 53.5933 434.211 53.2267 435.568 52.86C436.924 52.4933 438.538 52.31 440.408 52.31C443.268 52.31 445.541 52.9517 447.228 54.235C448.914 55.5183 449.758 57.7367 449.758 60.89V83H444.863ZM467.152 83.55C464.988 83.55 462.972 83.3483 461.102 82.945C459.268 82.505 457.71 81.9917 456.427 81.405L457.857 77.445C459.03 77.9217 460.423 78.38 462.037 78.82C463.687 79.26 465.428 79.48 467.262 79.48C469.205 79.48 470.818 79.1133 472.102 78.38C473.385 77.6467 474.027 76.5833 474.027 75.19C474.027 73.9433 473.513 72.9167 472.487 72.11C471.46 71.3033 469.81 70.5517 467.537 69.855C465.227 69.1217 463.265 68.3517 461.652 67.545C460.075 66.7017 458.865 65.7117 458.022 64.575C457.215 63.4017 456.812 61.9533 456.812 60.23C456.812 57.9567 457.747 56.0683 459.617 54.565C461.487 53.0617 464.475 52.31 468.582 52.31C470.342 52.31 471.992 52.475 473.532 52.805C475.108 53.0983 476.337 53.52 477.217 54.07V58.195C476.3 57.755 475.035 57.3333 473.422 56.93C471.808 56.5267 470.14 56.325 468.417 56.325C465.96 56.325 464.218 56.71 463.192 57.48C462.202 58.2133 461.707 59.0567 461.707 60.01C461.707 60.8167 461.927 61.495 462.367 62.045C462.843 62.595 463.632 63.1267 464.732 63.64C465.868 64.1533 467.39 64.74 469.297 65.4C471.057 65.9867 472.67 66.665 474.137 67.435C475.603 68.205 476.758 69.1767 477.602 70.35C478.482 71.4867 478.922 72.9533 478.922 74.75C478.922 76.29 478.537 77.7383 477.767 79.095C477.033 80.415 475.805 81.4967 474.082 82.34C472.358 83.1467 470.048 83.55 467.152 83.55ZM485.537 83V63.75C485.537 60.0467 486.527 57.2233 488.507 55.28C490.487 53.3 493.64 52.31 497.967 52.31C502.33 52.31 505.484 53.3 507.427 55.28C509.407 57.2233 510.397 60.0467 510.397 63.75V83H505.502V63.75C505.502 58.8367 502.972 56.38 497.912 56.38C492.925 56.38 490.432 58.8367 490.432 63.75V69.855L490.597 69.91C491.404 68.48 492.394 67.545 493.567 67.105C494.74 66.6283 496.39 66.39 498.517 66.39H500.332V70.405H498.517C496.28 70.405 494.575 70.7167 493.402 71.34C492.265 71.9633 491.477 72.7883 491.037 73.815C490.634 74.805 490.432 75.9233 490.432 77.17V83H485.537ZM527.846 83V61.605C527.846 59.8083 527.425 58.4883 526.581 57.645C525.775 56.8017 524.4 56.38 522.456 56.38C521.136 56.38 519.89 56.5633 518.716 56.93C517.58 57.26 516.48 57.7367 515.416 58.36V53.96C516.15 53.5933 517.195 53.2267 518.551 52.86C519.908 52.4933 521.521 52.31 523.391 52.31C526.251 52.31 528.525 52.9517 530.211 54.235C531.898 55.5183 532.741 57.7367 532.741 60.89V83H527.846ZM556.185 83.55C553.838 83.55 551.803 83.0917 550.08 82.175C548.393 81.2217 547.238 79.9017 546.615 78.215H546.395L546.12 83H542.105V52.86H547V70.295C547 73.0817 547.715 75.3 549.145 76.95C550.575 78.6 552.592 79.425 555.195 79.425C559.485 79.425 561.63 77.1883 561.63 72.715V52.86H566.525V73.045C566.525 76.675 565.608 79.3333 563.775 81.02C561.978 82.7067 559.448 83.55 556.185 83.55Z" fill="white"/>
<path d="M324.87 82.175L324.378 83.0456L324.389 83.0519L324.4 83.0579L324.87 82.175ZM321.405 78.215L322.343 77.8683L322.102 77.215H321.405V78.215ZM321.185 78.215V77.215H320.241L320.187 78.1576L321.185 78.215ZM320.91 83V84H321.854L321.908 83.0574L320.91 83ZM316.895 83H315.895V84H316.895V83ZM316.895 52.86V51.86H315.895V52.86H316.895ZM321.79 52.86H322.79V51.86H321.79V52.86ZM323.935 76.95L324.691 76.2951L324.691 76.2951L323.935 76.95ZM336.42 52.86V51.86H335.42V52.86H336.42ZM341.315 52.86H342.315V51.86H341.315V52.86ZM338.565 81.02L337.888 80.284L337.881 80.2909L338.565 81.02ZM330.975 82.55C328.759 82.55 326.892 82.1178 325.34 81.2921L324.4 83.0579C326.295 84.0655 328.497 84.55 330.975 84.55V82.55ZM325.362 81.3044C323.864 80.4578 322.878 79.3153 322.343 77.8683L320.467 78.5616C321.179 80.4881 322.503 81.9856 324.378 83.0456L325.362 81.3044ZM321.405 77.215H321.185V79.215H321.405V77.215ZM320.187 78.1576L319.912 82.9426L321.908 83.0574L322.183 78.2724L320.187 78.1576ZM320.91 82H316.895V84H320.91V82ZM317.895 83V52.86H315.895V83H317.895ZM316.895 53.86H321.79V51.86H316.895V53.86ZM320.79 52.86V70.295H322.79V52.86H320.79ZM320.79 70.295C320.79 73.254 321.552 75.7274 323.179 77.6049L324.691 76.2951C323.458 74.8726 322.79 72.9093 322.79 70.295H320.79ZM323.179 77.6049C324.836 79.5165 327.153 80.425 329.985 80.425V78.425C327.61 78.425 325.894 77.6835 324.691 76.2951L323.179 77.6049ZM329.985 80.425C332.295 80.425 334.209 79.8206 335.533 78.4397C336.85 77.0665 337.42 75.0956 337.42 72.715H335.42C335.42 74.8077 334.918 76.1918 334.09 77.0553C333.269 77.911 331.965 78.425 329.985 78.425V80.425ZM337.42 72.715V52.86H335.42V72.715H337.42ZM336.42 53.86H341.315V51.86H336.42V53.86ZM340.315 52.86V73.045H342.315V52.86H340.315ZM340.315 73.045C340.315 76.5248 339.436 78.8595 337.888 80.2841L339.242 81.7559C341.36 79.8071 342.315 76.8252 342.315 73.045H340.315ZM337.881 80.2909C336.323 81.7532 334.069 82.55 330.975 82.55V84.55C334.408 84.55 337.214 83.6601 339.249 81.7491L337.881 80.2909ZM350.679 83H349.679V84H350.679V83ZM350.679 52.86V51.86H349.679V52.86H350.679ZM355.574 52.86H356.574V51.86H355.574V52.86ZM355.574 65.895H354.574V66.895H355.574V65.895ZM355.739 65.895V66.895H356.165L356.46 66.5883L355.739 65.895ZM368.279 52.86V51.86H367.854L367.559 52.1667L368.279 52.86ZM373.999 52.86H374.999V51.86H373.999V52.86ZM373.999 53.025L374.711 53.7277L374.999 53.4356V53.025H373.999ZM365.144 61.99L364.433 61.2873L362.936 62.8029L365.058 62.9863L365.144 61.99ZM371.909 65.125L371.143 65.7682L371.15 65.7765L371.158 65.7846L371.909 65.125ZM374.274 83V84H375.274V83H374.274ZM369.379 83H368.379V84H369.379V83ZM367.564 67.49L366.846 68.1861L366.852 68.1917L366.857 68.1971L367.564 67.49ZM361.624 65.51L361.664 64.5108L361.221 64.4933L360.911 64.8093L361.624 65.51ZM355.574 71.67L354.861 70.9693L354.574 71.2611V71.67H355.574ZM355.574 83V84H356.574V83H355.574ZM351.679 83V52.86H349.679V83H351.679ZM350.679 53.86H355.574V51.86H350.679V53.86ZM354.574 52.86V65.895H356.574V52.86H354.574ZM355.574 66.895H355.739V64.895H355.574V66.895ZM356.46 66.5883L369 53.5533L367.559 52.1667L355.019 65.2017L356.46 66.5883ZM368.279 53.86H373.999V51.86H368.279V53.86ZM372.999 52.86V53.025H374.999V52.86H372.999ZM373.288 52.3223L364.433 61.2873L365.856 62.6927L374.711 53.7277L373.288 52.3223ZM365.058 62.9863C367.832 63.226 369.814 64.1853 371.143 65.7682L372.675 64.4818C370.925 62.398 368.396 61.2673 365.23 60.9937L365.058 62.9863ZM371.158 65.7846C372.538 67.3576 373.274 69.4866 373.274 72.275H375.274C375.274 69.1234 374.434 66.4857 372.661 64.4654L371.158 65.7846ZM373.274 72.275V83H375.274V72.275H373.274ZM374.274 82H369.379V84H374.274V82ZM370.379 83V72.385H368.379V83H370.379ZM370.379 72.385C370.379 70.1232 369.705 68.2171 368.271 66.7829L366.857 68.1971C367.843 69.1829 368.379 70.5401 368.379 72.385H370.379ZM368.282 66.7939C366.844 65.3106 364.549 64.6247 361.664 64.5108L361.585 66.5092C364.273 66.6153 365.938 67.2494 366.846 68.1861L368.282 66.7939ZM360.911 64.8093L354.861 70.9693L356.288 72.3707L362.338 66.2107L360.911 64.8093ZM354.574 71.67V83H356.574V71.67H354.574ZM355.574 82H350.679V84H355.574V82ZM391.044 83H390.044V84H391.044V83ZM389.779 57.645L389.057 58.3362L389.064 58.3442L389.072 58.3521L389.779 57.645ZM381.914 56.93L382.193 57.8903L382.203 57.8875L382.213 57.8845L381.914 56.93ZM378.614 58.36H377.614V60.1054L379.12 59.2227L378.614 58.36ZM378.614 53.96L378.167 53.0656L377.614 53.342V53.96H378.614ZM393.409 54.235L392.804 55.0308L392.804 55.0308L393.409 54.235ZM395.939 83V84H396.939V83H395.939ZM392.044 83V61.605H390.044V83H392.044ZM392.044 61.605C392.044 59.6756 391.594 58.0453 390.487 56.9379L389.072 58.3521C389.652 58.9314 390.044 59.941 390.044 61.605H392.044ZM390.502 56.9538C389.414 55.8159 387.698 55.38 385.654 55.38V57.38C387.498 57.38 388.532 57.7874 389.057 58.3362L390.502 56.9538ZM385.654 55.38C384.241 55.38 382.893 55.5765 381.616 55.9755L382.213 57.8845C383.283 57.5501 384.428 57.38 385.654 57.38V55.38ZM381.636 55.9697C380.416 56.3236 379.24 56.8339 378.109 57.4973L379.12 59.2227C380.115 58.6394 381.139 58.1964 382.193 57.8903L381.636 55.9697ZM379.614 58.36V53.96H377.614V58.36H379.614ZM379.062 54.8544C379.708 54.5313 380.679 54.1851 382.01 53.8254L381.489 51.8946C380.106 52.2683 378.988 52.6554 378.167 53.0656L379.062 54.8544ZM382.01 53.8254C383.259 53.4878 384.78 53.31 386.589 53.31V51.31C384.658 51.31 382.953 51.4988 381.489 51.8946L382.01 53.8254ZM386.589 53.31C389.306 53.31 391.343 53.9194 392.804 55.0308L394.015 53.4392C392.102 51.9839 389.592 51.31 386.589 51.31V53.31ZM392.804 55.0308C394.139 56.0464 394.939 57.8909 394.939 60.89H396.939C396.939 57.5824 396.054 54.9903 394.015 53.4392L392.804 55.0308ZM394.939 60.89V83H396.939V60.89H394.939ZM395.939 82H391.044V84H395.939V82ZM405.633 81.35L404.968 82.0965L404.976 82.1041L404.985 82.1115L405.633 81.35ZM406.403 67.875L405.81 67.0703L405.803 67.075L406.403 67.875ZM417.238 64.96L417.297 65.9583L417.301 65.9581L417.238 64.96ZM422.518 64.63L422.581 65.6281L423.518 65.5694V64.63H422.518ZM420.868 57.865L420.174 58.5844L420.186 58.5966L420.199 58.6083L420.868 57.865ZM410.198 57.095L410.476 58.0557L410.483 58.0537L410.489 58.0517L410.198 57.095ZM405.468 59.13H404.468V60.8741L405.973 59.993L405.468 59.13ZM405.468 54.565L405.009 53.6768L404.468 53.9564V54.565H405.468ZM409.758 53.025L409.507 52.0572L409.502 52.0584L409.758 53.025ZM419.823 52.695L419.603 53.6705L419.61 53.6719L419.823 52.695ZM422.738 54.015L422.109 54.7922L422.596 55.1869L423.164 54.9198L422.738 54.015ZM424.333 52.805L425.092 53.4558L425.092 53.4558L424.333 52.805ZM424.993 50.88V49.88H423.993V50.88H424.993ZM429.778 50.88H430.778V49.88H429.778V50.88ZM428.568 54.4L427.805 53.7541L427.797 53.7628L427.79 53.7717L428.568 54.4ZM425.598 56.6L425.208 55.6794L423.884 56.2411L424.871 57.2866L425.598 56.6ZM426.918 59.13L425.948 59.3725L425.952 59.3887L425.957 59.4047L426.918 59.13ZM427.358 83V84H428.358V83H427.358ZM422.518 83H421.518V84H422.518V83ZM422.518 68.7H423.518V67.626L422.447 67.7025L422.518 68.7ZM417.898 69.03L417.967 70.0277L417.969 70.0275L417.898 69.03ZM410.143 70.79L409.603 69.9481L409.594 69.9546L410.143 70.79ZM409.593 78.435L408.993 79.235L409 79.24L409.007 79.2449L409.593 78.435ZM417.183 79.095L418.162 78.8905L417.927 77.7645L416.844 78.1541L417.183 79.095ZM417.953 82.78L418.299 83.7183L419.109 83.4201L418.932 82.5755L417.953 82.78ZM415.643 83.33L415.514 82.3384L415.489 82.3416L415.464 82.3461L415.643 83.33ZM413.058 82.55C409.969 82.55 407.76 81.8471 406.281 80.5885L404.985 82.1115C406.953 83.7863 409.694 84.55 413.058 84.55V82.55ZM406.299 80.6035C404.873 79.333 404.103 77.4884 404.103 74.915H402.103C402.103 77.9149 403.02 80.3603 404.968 82.0965L406.299 80.6035ZM404.103 74.915C404.103 72.1477 405.084 70.1141 407.003 68.675L405.803 67.075C403.322 68.9359 402.103 71.5956 402.103 74.915H404.103ZM406.997 68.6797C408.997 67.2043 412.37 66.2481 417.297 65.9583L417.179 63.9617C412.133 64.2586 408.283 65.2457 405.81 67.0703L406.997 68.6797ZM417.301 65.9581L422.581 65.6281L422.456 63.6319L417.176 63.9619L417.301 65.9581ZM423.518 64.63V62.925H421.518V64.63H423.518ZM423.518 62.925C423.518 60.427 422.947 58.3907 421.537 57.1217L420.199 58.6083C420.989 59.3193 421.518 60.6563 421.518 62.925H423.518ZM421.563 57.1456C420.218 55.8474 418.096 55.325 415.478 55.325V57.325C417.921 57.325 419.392 57.8293 420.174 58.5844L421.563 57.1456ZM415.478 55.325C413.55 55.325 411.692 55.5951 409.907 56.1383L410.489 58.0517C412.078 57.5682 413.74 57.325 415.478 57.325V55.325ZM409.921 56.1343C408.19 56.6343 406.537 57.3457 404.963 58.267L405.973 59.993C407.406 59.1543 408.907 58.509 410.476 58.0557L409.921 56.1343ZM406.468 59.13V54.565H404.468V59.13H406.468ZM405.928 55.4532C406.901 54.9497 408.254 54.4586 410.015 53.9916L409.502 52.0584C407.669 52.5447 406.162 53.0803 405.009 53.6768L405.928 55.4532ZM410.01 53.9928C411.747 53.5413 413.713 53.31 415.918 53.31V51.31C413.576 51.31 411.437 51.5554 409.507 52.0572L410.01 53.9928ZM415.918 53.31C417.329 53.31 418.554 53.4337 419.603 53.6704L420.043 51.7196C418.819 51.443 417.441 51.31 415.918 51.31V53.31ZM419.61 53.6719C420.663 53.9023 421.483 54.2856 422.109 54.7922L423.367 53.2378C422.453 52.4978 421.331 52.0011 420.037 51.7181L419.61 53.6719ZM423.164 54.9198C423.913 54.5675 424.559 54.0785 425.092 53.4558L423.574 52.1542C423.228 52.5582 422.81 52.8758 422.312 53.1102L423.164 54.9198ZM425.092 53.4558C425.709 52.7361 425.993 51.8535 425.993 50.88H423.993C423.993 51.4465 423.837 51.8472 423.574 52.1542L425.092 53.4558ZM424.993 51.88H429.778V49.88H424.993V51.88ZM428.778 50.88C428.778 52.066 428.441 53.0024 427.805 53.7541L429.332 55.0459C430.309 53.8909 430.778 52.4806 430.778 50.88H428.778ZM427.79 53.7717C427.131 54.5881 426.278 55.2254 425.208 55.6794L425.989 57.5206C427.339 56.9479 428.466 56.1186 429.346 55.0283L427.79 53.7717ZM424.871 57.2866C425.359 57.8026 425.726 58.4845 425.948 59.3725L427.888 58.8875C427.597 57.7222 427.085 56.7174 426.325 55.9134L424.871 57.2866ZM425.957 59.4047C426.219 60.3239 426.358 61.4019 426.358 62.65H428.358C428.358 61.2581 428.204 59.9894 427.88 58.8553L425.957 59.4047ZM426.358 62.65V83H428.358V62.65H426.358ZM427.358 82H422.518V84H427.358V82ZM423.518 83V68.7H421.518V83H423.518ZM422.447 67.7025L417.827 68.0325L417.969 70.0275L422.589 69.6975L422.447 67.7025ZM417.83 68.0323C414.079 68.2898 411.265 68.8829 409.604 69.9481L410.683 71.6319C411.881 70.8638 414.238 70.2836 417.967 70.0277L417.83 68.0323ZM409.594 69.9546C407.901 71.0681 407.053 72.7307 407.053 74.805H409.053C409.053 73.3593 409.599 72.3452 410.693 71.6254L409.594 69.9546ZM407.053 74.805C407.053 76.671 407.645 78.2238 408.993 79.235L410.193 77.635C409.488 77.1062 409.053 76.239 409.053 74.805H407.053ZM409.007 79.2449C410.299 80.181 411.999 80.59 413.993 80.59V78.59C412.248 78.59 411.014 78.229 410.18 77.6251L409.007 79.2449ZM413.993 80.59C415.292 80.59 416.474 80.4132 417.522 80.0359L416.844 78.1541C416.059 78.4368 415.115 78.59 413.993 78.59V80.59ZM416.204 79.2995L416.974 82.9845L418.932 82.5755L418.162 78.8905L416.204 79.2995ZM417.607 81.8417C416.99 82.0692 416.294 82.2367 415.514 82.3384L415.773 84.3216C416.679 84.2033 417.523 84.0042 418.299 83.7183L417.607 81.8417ZM415.464 82.3461C414.723 82.4809 413.922 82.55 413.058 82.55V84.55C414.028 84.55 414.95 84.4724 415.822 84.3139L415.464 82.3461ZM444.863 83H443.863V84H444.863V83ZM443.598 57.645L442.875 58.3362L442.883 58.3442L442.891 58.3521L443.598 57.645ZM435.733 56.93L436.012 57.8903L436.021 57.8875L436.031 57.8845L435.733 56.93ZM432.433 58.36H431.433V60.1054L432.939 59.2227L432.433 58.36ZM432.433 53.96L431.986 53.0656L431.433 53.342V53.96H432.433ZM447.228 54.235L446.622 55.0308L446.622 55.0308L447.228 54.235ZM449.758 83V84H450.758V83H449.758ZM445.863 83V61.605H443.863V83H445.863ZM445.863 61.605C445.863 59.6756 445.412 58.0453 444.305 56.9379L442.891 58.3521C443.47 58.9314 443.863 59.941 443.863 61.605H445.863ZM444.32 56.9538C443.232 55.8159 441.516 55.38 439.473 55.38V57.38C441.316 57.38 442.35 57.7874 442.875 58.3362L444.32 56.9538ZM439.473 55.38C438.059 55.38 436.711 55.5765 435.435 55.9755L436.031 57.8845C437.101 57.5501 438.247 57.38 439.473 57.38V55.38ZM435.454 55.9697C434.235 56.3236 433.059 56.8339 431.927 57.4973L432.939 59.2227C433.934 58.6394 434.958 58.1964 436.012 57.8903L435.454 55.9697ZM433.433 58.36V53.96H431.433V58.36H433.433ZM432.88 54.8544C433.526 54.5313 434.498 54.1851 435.829 53.8254L435.307 51.8946C433.924 52.2683 432.806 52.6554 431.986 53.0656L432.88 54.8544ZM435.829 53.8254C437.078 53.4878 438.599 53.31 440.408 53.31V51.31C438.477 51.31 436.771 51.4988 435.307 51.8946L435.829 53.8254ZM440.408 53.31C443.125 53.31 445.162 53.9194 446.622 55.0308L447.833 53.4392C445.921 51.9839 443.411 51.31 440.408 51.31V53.31ZM446.622 55.0308C447.957 56.0464 448.758 57.8909 448.758 60.89H450.758C450.758 57.5824 449.872 54.9903 447.833 53.4392L446.622 55.0308ZM448.758 60.89V83H450.758V60.89H448.758ZM449.758 82H444.863V84H449.758V82ZM461.102 82.945L460.868 83.9174L460.879 83.9201L460.891 83.9225L461.102 82.945ZM456.427 81.405L455.486 81.0654L455.173 81.9316L456.011 82.3145L456.427 81.405ZM457.857 77.445L458.233 76.5185L457.269 76.127L456.916 77.1054L457.857 77.445ZM462.037 78.82L461.773 79.7848L461.779 79.7862L462.037 78.82ZM472.102 78.38L471.605 77.5118L471.605 77.5118L472.102 78.38ZM467.537 69.855L467.234 70.8082L467.244 70.8111L467.537 69.855ZM461.652 67.545L461.18 68.4268L461.192 68.4333L461.204 68.4394L461.652 67.545ZM458.022 64.575L457.198 65.1415L457.208 65.1564L457.218 65.1708L458.022 64.575ZM459.617 54.565L460.243 55.3444L460.243 55.3444L459.617 54.565ZM473.532 52.805L473.322 53.7828L473.335 53.7856L473.349 53.7881L473.532 52.805ZM477.217 54.07H478.217V53.5158L477.747 53.222L477.217 54.07ZM477.217 58.195L476.784 59.0965L478.217 59.7842V58.195H477.217ZM473.422 56.93L473.664 55.9599L473.664 55.9599L473.422 56.93ZM463.192 57.48L463.787 58.2836L463.792 58.28L463.192 57.48ZM462.367 62.045L461.586 62.6697L461.598 62.6851L461.611 62.6999L462.367 62.045ZM464.732 63.64L464.309 64.5463L464.32 64.5514L464.732 63.64ZM469.297 65.4L468.969 66.345L468.98 66.3487L469.297 65.4ZM477.602 70.35L476.79 70.9336L476.8 70.9481L476.811 70.9622L477.602 70.35ZM477.767 79.095L476.897 78.6014L476.892 78.6094L477.767 79.095ZM474.082 82.34L474.506 83.2457L474.513 83.242L474.521 83.2382L474.082 82.34ZM467.152 82.55C465.05 82.55 463.105 82.3541 461.312 81.9675L460.891 83.9225C462.838 84.3426 464.926 84.55 467.152 84.55V82.55ZM461.335 81.9726C459.545 81.543 458.051 81.0482 456.842 80.4955L456.011 82.3145C457.369 82.9351 458.992 83.467 460.868 83.9174L461.335 81.9726ZM457.367 81.7446L458.797 77.7846L456.916 77.1054L455.486 81.0654L457.367 81.7446ZM457.48 78.3715C458.7 78.867 460.133 79.3374 461.773 79.7848L462.3 77.8552C460.713 77.4226 459.36 76.9763 458.233 76.5185L457.48 78.3715ZM461.779 79.7862C463.519 80.2502 465.348 80.48 467.262 80.48V78.48C465.509 78.48 463.854 78.2698 462.294 77.8538L461.779 79.7862ZM467.262 80.48C469.326 80.48 471.123 80.0909 472.598 79.2482L471.605 77.5118C470.513 78.1357 469.084 78.48 467.262 78.48V80.48ZM472.598 79.2482C474.169 78.3502 475.027 76.9682 475.027 75.19H473.027C473.027 76.1985 472.6 76.9432 471.605 77.5118L472.598 79.2482ZM475.027 75.19C475.027 73.62 474.359 72.3095 473.104 71.3237L471.869 72.8963C472.667 73.5238 473.027 74.2667 473.027 75.19H475.027ZM473.104 71.3237C471.931 70.4021 470.14 69.607 467.83 68.8989L467.244 70.8111C469.48 71.4963 470.988 72.2046 471.869 72.8963L473.104 71.3237ZM467.839 68.9019C465.563 68.1793 463.653 67.4276 462.099 66.6506L461.204 68.4394C462.877 69.2758 464.89 70.064 467.234 70.8081L467.839 68.9019ZM462.123 66.6632C460.644 65.8718 459.56 64.9702 458.825 63.9792L457.218 65.1708C458.17 66.4531 459.506 67.5316 461.18 68.4268L462.123 66.6632ZM458.846 64.0085C458.176 63.0342 457.812 61.7942 457.812 60.23H455.812C455.812 62.1124 456.254 63.7691 457.198 65.1415L458.846 64.0085ZM457.812 60.23C457.812 58.2785 458.594 56.67 460.243 55.3444L458.99 53.7856C456.899 55.4666 455.812 57.6349 455.812 60.23H457.812ZM460.243 55.3444C461.847 54.0547 464.556 53.31 468.582 53.31V51.31C464.394 51.31 461.126 52.0687 458.99 53.7856L460.243 55.3444ZM468.582 53.31C470.279 53.31 471.858 53.4692 473.322 53.7828L473.741 51.8272C472.125 51.4808 470.404 51.31 468.582 51.31V53.31ZM473.349 53.7881C474.862 54.0697 475.954 54.4604 476.687 54.918L477.747 53.222C476.719 52.5796 475.354 52.127 473.714 51.8219L473.349 53.7881ZM476.217 54.07V58.195H478.217V54.07H476.217ZM477.649 57.2935C476.646 56.8117 475.307 56.3707 473.664 55.9599L473.179 57.9001C474.762 58.296 475.954 58.6983 476.784 59.0965L477.649 57.2935ZM473.664 55.9599C471.969 55.536 470.219 55.325 468.417 55.325V57.325C470.061 57.325 471.648 57.5173 473.179 57.9001L473.664 55.9599ZM468.417 55.325C465.913 55.325 463.89 55.7062 462.592 56.68L463.792 58.28C464.546 57.7138 466.007 57.325 468.417 57.325V55.325ZM462.596 56.6764C461.434 57.5378 460.707 58.6502 460.707 60.01H462.707C462.707 59.4631 462.97 58.8889 463.787 58.2836L462.596 56.6764ZM460.707 60.01C460.707 61.009 460.984 61.9171 461.586 62.6697L463.147 61.4203C462.87 61.0729 462.707 60.6243 462.707 60.01H460.707ZM461.611 62.6999C462.221 63.4042 463.155 64.008 464.309 64.5462L465.154 62.7338C464.108 62.2453 463.465 61.7858 463.122 61.3901L461.611 62.6999ZM464.32 64.5514C465.496 65.0824 467.049 65.6803 468.969 66.345L469.624 64.455C467.731 63.7997 466.241 63.2243 465.143 62.7286L464.32 64.5514ZM468.98 66.3487C470.695 66.9203 472.258 67.5782 473.672 68.3204L474.601 66.5496C473.082 65.7518 471.418 65.053 469.613 64.4513L468.98 66.3487ZM473.672 68.3204C475.021 69.0288 476.049 69.9038 476.79 70.9336L478.414 69.7664C477.467 68.4495 476.185 67.3812 474.601 66.5496L473.672 68.3204ZM476.811 70.9622C477.524 71.8837 477.922 73.1185 477.922 74.75H479.922C479.922 72.7881 479.439 71.0896 478.392 69.7378L476.811 70.9622ZM477.922 74.75C477.922 76.1146 477.583 77.3932 476.897 78.6014L478.636 79.5886C479.491 78.0835 479.922 76.4654 479.922 74.75H477.922ZM476.892 78.6094C476.282 79.7077 475.231 80.664 473.642 81.4418L474.521 83.2382C476.378 82.3294 477.784 81.1223 478.641 79.5806L476.892 78.6094ZM473.658 81.4343C472.118 82.155 469.971 82.55 467.152 82.55V84.55C470.125 84.55 472.598 84.1384 474.506 83.2457L473.658 81.4343ZM485.537 83H484.537V84H485.537V83ZM488.507 55.28L489.208 55.9937L489.214 55.9871L488.507 55.28ZM507.427 55.28L506.713 55.9805L506.72 55.9871L506.727 55.9937L507.427 55.28ZM510.397 83V84H511.397V83H510.397ZM505.502 83H504.502V84H505.502V83ZM490.432 69.855H489.432V70.5758L490.116 70.8037L490.432 69.855ZM490.597 69.91L490.281 70.8587L491.063 71.1194L491.468 70.4013L490.597 69.91ZM493.567 67.105L493.918 68.0413L493.931 68.0366L493.943 68.0315L493.567 67.105ZM500.332 66.39H501.332V65.39H500.332V66.39ZM500.332 70.405V71.405H501.332V70.405H500.332ZM493.402 71.34L492.933 70.4568L492.921 70.4632L493.402 71.34ZM491.037 73.815L490.118 73.4211L490.114 73.4294L490.111 73.4377L491.037 73.815ZM490.432 83V84H491.432V83H490.432ZM486.537 83V63.75H484.537V83H486.537ZM486.537 63.75C486.537 60.222 487.477 57.6925 489.207 55.9937L487.807 54.5663C485.577 56.7542 484.537 59.8713 484.537 63.75H486.537ZM489.214 55.9871C490.926 54.2752 493.764 53.31 497.967 53.31V51.31C493.516 51.31 490.048 52.3248 487.8 54.5729L489.214 55.9871ZM497.967 53.31C502.211 53.31 505.042 54.2774 506.713 55.9805L508.141 54.5795C505.926 52.3226 502.449 51.31 497.967 51.31V53.31ZM506.727 55.9937C508.457 57.6925 509.397 60.222 509.397 63.75H511.397C511.397 59.8713 510.357 56.7542 508.128 54.5663L506.727 55.9937ZM509.397 63.75V83H511.397V63.75H509.397ZM510.397 82H505.502V84H510.397V82ZM506.502 83V63.75H504.502V83H506.502ZM506.502 63.75C506.502 61.1316 505.826 58.9859 504.301 57.5051C502.782 56.0296 500.589 55.38 497.912 55.38V57.38C500.295 57.38 501.897 57.9588 502.908 58.9399C503.913 59.9158 504.502 61.4551 504.502 63.75H506.502ZM497.912 55.38C495.268 55.38 493.101 56.0314 491.6 57.5102C490.097 58.9916 489.432 61.1354 489.432 63.75H491.432C491.432 61.4513 492.014 59.91 493.004 58.9348C493.996 57.9569 495.569 57.38 497.912 57.38V55.38ZM489.432 63.75V69.855H491.432V63.75H489.432ZM490.116 70.8037L490.281 70.8587L490.913 68.9613L490.748 68.9063L490.116 70.8037ZM491.468 70.4013C492.195 69.1118 493.026 68.376 493.918 68.0413L493.216 66.1687C491.762 66.714 490.612 67.8482 489.726 69.4187L491.468 70.4013ZM493.943 68.0315C494.943 67.6255 496.444 67.39 498.517 67.39V65.39C496.337 65.39 494.538 65.6312 493.191 66.1785L493.943 68.0315ZM498.517 67.39H500.332V65.39H498.517V67.39ZM499.332 66.39V70.405H501.332V66.39H499.332ZM500.332 69.405H498.517V71.405H500.332V69.405ZM498.517 69.405C496.215 69.405 494.318 69.7212 492.933 70.4569L493.871 72.2231C494.833 71.7122 496.346 71.405 498.517 71.405V69.405ZM492.921 70.4632C491.621 71.176 490.66 72.157 490.118 73.4211L491.956 74.2089C492.294 73.4197 492.909 72.7507 493.883 72.2168L492.921 70.4632ZM490.111 73.4377C489.651 74.5657 489.432 75.8152 489.432 77.17H491.432C491.432 76.0315 491.616 75.0443 491.963 74.1923L490.111 73.4377ZM489.432 77.17V83H491.432V77.17H489.432ZM490.432 82H485.537V84H490.432V82ZM527.846 83H526.846V84H527.846V83ZM526.581 57.645L525.859 58.3362L525.866 58.3442L525.874 58.3521L526.581 57.645ZM518.716 56.93L518.995 57.8903L519.005 57.8875L519.014 57.8845L518.716 56.93ZM515.416 58.36H514.416V60.1054L515.922 59.2227L515.416 58.36ZM515.416 53.96L514.969 53.0656L514.416 53.342V53.96H515.416ZM530.211 54.235L529.606 55.0308L529.606 55.0308L530.211 54.235ZM532.741 83V84H533.741V83H532.741ZM528.846 83V61.605H526.846V83H528.846ZM528.846 61.605C528.846 59.6756 528.396 58.0453 527.288 56.9379L525.874 58.3521C526.453 58.9314 526.846 59.941 526.846 61.605H528.846ZM527.304 56.9538C526.215 55.8159 524.5 55.38 522.456 55.38V57.38C524.3 57.38 525.334 57.7874 525.859 58.3362L527.304 56.9538ZM522.456 55.38C521.043 55.38 519.695 55.5765 518.418 55.9755L519.014 57.8845C520.084 57.5501 521.23 57.38 522.456 57.38V55.38ZM518.437 55.9697C517.218 56.3236 516.042 56.8339 514.91 57.4973L515.922 59.2227C516.917 58.6394 517.941 58.1964 518.995 57.8903L518.437 55.9697ZM516.416 58.36V53.96H514.416V58.36H516.416ZM515.863 54.8544C516.51 54.5313 517.481 54.1851 518.812 53.8254L518.29 51.8946C516.908 52.2683 515.789 52.6554 514.969 53.0656L515.863 54.8544ZM518.812 53.8254C520.061 53.4878 521.582 53.31 523.391 53.31V51.31C521.46 51.31 519.755 51.4988 518.29 51.8946L518.812 53.8254ZM523.391 53.31C526.108 53.31 528.145 53.9194 529.606 55.0308L530.817 53.4392C528.904 51.9839 526.394 51.31 523.391 51.31V53.31ZM529.606 55.0308C530.94 56.0464 531.741 57.8909 531.741 60.89H533.741C533.741 57.5824 532.855 54.9903 530.817 53.4392L529.606 55.0308ZM531.741 60.89V83H533.741V60.89H531.741ZM532.741 82H527.846V84H532.741V82ZM550.08 82.175L549.588 83.0456L549.599 83.0519L549.61 83.0579L550.08 82.175ZM546.615 78.215L547.553 77.8683L547.312 77.215H546.615V78.215ZM546.395 78.215V77.215H545.451L545.397 78.1576L546.395 78.215ZM546.12 83V84H547.064L547.118 83.0574L546.12 83ZM542.105 83H541.105V84H542.105V83ZM542.105 52.86V51.86H541.105V52.86H542.105ZM547 52.86H548V51.86H547V52.86ZM549.145 76.95L549.901 76.2951L549.901 76.2951L549.145 76.95ZM561.63 52.86V51.86H560.63V52.86H561.63ZM566.525 52.86H567.525V51.86H566.525V52.86ZM563.775 81.02L563.098 80.284L563.091 80.2909L563.775 81.02ZM556.185 82.55C553.969 82.55 552.102 82.1178 550.55 81.2921L549.61 83.0579C551.505 84.0655 553.707 84.55 556.185 84.55V82.55ZM550.572 81.3044C549.074 80.4578 548.088 79.3153 547.553 77.8683L545.677 78.5616C546.389 80.4881 547.713 81.9856 549.588 83.0456L550.572 81.3044ZM546.615 77.215H546.395V79.215H546.615V77.215ZM545.397 78.1576L545.122 82.9426L547.118 83.0574L547.393 78.2724L545.397 78.1576ZM546.12 82H542.105V84H546.12V82ZM543.105 83V52.86H541.105V83H543.105ZM542.105 53.86H547V51.86H542.105V53.86ZM546 52.86V70.295H548V52.86H546ZM546 70.295C546 73.254 546.762 75.7274 548.389 77.6049L549.901 76.2951C548.668 74.8726 548 72.9093 548 70.295H546ZM548.389 77.6049C550.046 79.5165 552.363 80.425 555.195 80.425V78.425C552.82 78.425 551.104 77.6835 549.901 76.2951L548.389 77.6049ZM555.195 80.425C557.505 80.425 559.419 79.8206 560.743 78.4397C562.06 77.0665 562.63 75.0956 562.63 72.715H560.63C560.63 74.8077 560.128 76.1918 559.299 77.0553C558.479 77.911 557.175 78.425 555.195 78.425V80.425ZM562.63 72.715V52.86H560.63V72.715H562.63ZM561.63 53.86H566.525V51.86H561.63V53.86ZM565.525 52.86V73.045H567.525V52.86H565.525ZM565.525 73.045C565.525 76.5248 564.646 78.8595 563.098 80.2841L564.452 81.7559C566.57 79.8071 567.525 76.8252 567.525 73.045H565.525ZM563.091 80.2909C561.533 81.7532 559.279 82.55 556.185 82.55V84.55C559.618 84.55 562.424 83.6601 564.459 81.7491L563.091 80.2909Z" fill="white"/>
</g>
<defs>
<filter id="filter0_d" x="2.70768" y="7.21" width="292.797" height="81.69" filterUnits="userSpaceOnUse" color-interpolation-filters="sRGB">
<feFlood flood-opacity="0" result="BackgroundImageFix"/>
<feColorMatrix in="SourceAlpha" type="matrix" values="0 0 0 0 0 0 0 0 0 0 0 0 0 0 0 0 0 0 127 0" result="hardAlpha"/>
<feOffset dy="3"/>
<feGaussianBlur stdDeviation="0.5"/>
<feComposite in2="hardAlpha" operator="out"/>
<feColorMatrix type="matrix" values="0 0 0 0 0 0 0 0 0 0 0 0 0 0 0 0 0 0 0.25 0"/>
<feBlend mode="normal" in2="BackgroundImageFix" result="effect1_dropShadow"/>
<feBlend mode="normal" in="SourceGraphic" in2="effect1_dropShadow" result="shape"/>
</filter>
<clipPath id="clip0">
<rect width="578" height="141" fill="white"/>
</clipPath>
</defs>
</svg>
